<svg width="24" height="24" viewBox="0 0 24 24" fill="none" xmlns="http://www.w3.org/2000/svg">
<g clip-path="url(#clip0_91_253)">
<path d="M0.70208 18.3286H19.0779C19.2427 18.3286 19.402 18.271 19.5283 18.1659C19.7048 18.0181 23.731 14.5546 23.9765 7.07812H4.24121C3.99665 13.8647 0.288765 17.0546 0.250232 17.0864C0.0243312 17.2773 -0.0587819 17.5891 0.0428476 17.8665C0.143774 18.1432 0.406801 18.3286 0.70208 18.3286Z" fill="#CD68C0"/>
<path d="M23.2968 2.85895H19.781V2.15579C19.781 1.76203 19.4716 1.45264 19.0779 1.45264C18.6841 1.45264 18.3747 1.76203 18.3747 2.15579V2.85895H14.8121V2.15579C14.8121 1.76203 14.5027 1.45264 14.1089 1.45264C13.7151 1.45264 13.4057 1.76203 13.4057 2.15579V2.85895H9.88996V2.15579C9.88996 1.76203 9.58057 1.45264 9.18681 1.45264C8.79304 1.45264 8.48365 1.76203 8.48365 2.15579V2.85895H4.96787C4.5741 2.85895 4.26471 3.16834 4.26471 3.56211V5.67158H24V3.56211C24 3.16834 23.6906 2.85895 23.2968 2.85895Z" fill="#CD68C0"/>
<path d="M20.4314 19.2437C20.0496 19.5616 19.5703 19.7346 19.0779 19.7346H4.26477V21.8441C4.26477 22.2328 4.57927 22.5473 4.96793 22.5473H23.2969C23.6855 22.5473 24 22.2328 24 21.8441V13.9619C22.6443 17.2879 20.7526 18.9748 20.4314 19.2437Z" fill="#CD68C0"/>
</g>
<defs>
<clipPath id="clip0_91_253">
<rect width="24" height="24" fill="white"/>
</clipPath>
</defs>
</svg>
