<svg xmlns="http://www.w3.org/2000/svg" viewBox="0 0 106.5 137.79"><defs><style>.cls-1{fill:#010101;}.cls-2{fill:#fff;}</style></defs><g id="Layer_2" data-name="Layer 2"><g id="Layer_1-2" data-name="Layer 1"><path class="cls-1" d="M62.68,79.56l1,.39a31.81,31.81,0,0,0,11,2c.84,0,1.68,0,2.51-.1V18.41c-.83-.06-1.67-.1-2.51-.1A31.8,31.8,0,0,0,57.46,76.82l1.54,1-3,6.52Z"/><path class="cls-1" d="M69.5,119.25H7.72a.16.16,0,0,1-.16-.16V10.86a.16.16,0,0,1,.16-.16H69.5a.16.16,0,0,1,.16.16v3.58a36.83,36.83,0,0,1,5-.35c.84,0,1.68,0,2.51.08v-5A9.14,9.14,0,0,0,68.08,0H9.14A9.14,9.14,0,0,0,0,9.14V128.65a9.14,9.14,0,0,0,9.14,9.14H68.08a9.14,9.14,0,0,0,9.14-9.14V86c-.83.06-1.67.09-2.51.09a36.94,36.94,0,0,1-5-.35v33.32A.16.16,0,0,1,69.5,119.25Z"/><path class="cls-2" d="M45.53,97l8.12-17.67a36,36,0,0,1,16-64.89V10.86a.16.16,0,0,0-.16-.16H7.72a.16.16,0,0,0-.16.16V119.09a.16.16,0,0,0,.16.16H69.5a.16.16,0,0,0,.16-.16V85.77a36.15,36.15,0,0,1-6.33-1.48Z"/><path class="cls-2" d="M45.08,128.85a6.47,6.47,0,1,0-6.47,6.47A6.47,6.47,0,0,0,45.08,128.85Z"/><path d="M74.71,18.31A31.8,31.8,0,0,0,57.46,76.82l1.54,1-3,6.52,6.68-4.77,1,.39a31.8,31.8,0,1,0,11-61.64Z"/><path d="M74.71,18.31A31.8,31.8,0,0,0,57.46,76.82l1.54,1-3,6.52,6.68-4.77,1,.39a31.8,31.8,0,1,0,11-61.64Z"/><rect class="cls-2" x="28.5" y="4.44" width="20.22" height="2.1" rx="0.96"/><path class="cls-2" d="M63.7,50.1A2.75,2.75,0,1,0,61,52.85,2.75,2.75,0,0,0,63.7,50.1Z"/><path class="cls-2" d="M77.42,50.1a2.75,2.75,0,1,0-2.74,2.75A2.74,2.74,0,0,0,77.42,50.1Z"/><circle class="cls-2" cx="88.46" cy="50.1" r="2.75"/></g></g></svg>