<?xml version="1.0" encoding="utf-8"?>
<!-- Generator: Adobe Illustrator 26.0.3, SVG Export Plug-In . SVG Version: 6.00 Build 0)  -->
<svg version="1.1" id="Layer_1" xmlns="http://www.w3.org/2000/svg" xmlns:xlink="http://www.w3.org/1999/xlink" x="0px" y="0px"
	 viewBox="0 0 140 140" style="enable-background:new 0 0 140 140;" xml:space="preserve">
<style type="text/css">
	.st0{fill:#FFFFFF;}
</style>
<g>
	<path id="path596" d="M80,104c0,13.5-1,28.3,7.1,34.8H22.7c8.1-6.5,7.1-21.3,7.1-34.8V69.1c0.3-13.9,11.7-24.9,25.6-24.6
		C68.9,44.8,79.8,55.6,80,69.1L80,104z"/>
	<circle cx="54.9" cy="20.5" r="19.5"/>
</g>
<g>
	<path class="st0" d="M83,137.4c-21,0-38-17-38-38s17-38,38-38s38,17,38,38S104,137.4,83,137.4z"/>
	<path d="M83,62.9c20.1,0,36.5,16.3,36.5,36.5c0,20.1-16.3,36.5-36.5,36.5c-20.1,0-36.5-16.3-36.5-36.4C46.6,79.3,62.9,63,83,62.9
		 M83,59.9c-21.8,0-39.5,17.7-39.5,39.5c0,21.8,17.7,39.5,39.5,39.5c21.8,0,39.5-17.7,39.5-39.4C122.5,77.6,104.9,60,83,59.9z"/>
	<circle cx="83.1" cy="99.4" r="5.4"/>
	<polygon points="86.8,103.2 86.7,96.7 100.2,99.7 100.2,99.7 	"/>
	<polygon points="86.8,98.9 81.5,96 94.8,78.2 94.8,78.2 	"/>
	<polygon points="82.2,69 80.5,60.8 85.5,60.8 83.9,69 82.2,69 	"/>
	<polygon points="83.9,129.9 85.5,138.1 80.5,138.1 82.2,129.9 83.9,129.9 	"/>
	<polygon points="52.6,100.2 44.4,101.9 44.4,96.9 52.6,98.6 52.6,100.2 	"/>
	<polygon points="113.5,98.6 121.7,96.9 121.7,101.9 113.5,100.2 113.5,98.6 	"/>
	<polygon points="67.1,73.5 61.6,67.2 65.9,64.7 68.5,72.7 67.1,73.5 	"/>
	<polygon points="99,125.4 104.5,131.6 100.2,134.1 97.6,126.2 99,125.4 	"/>
	<polygon points="57.1,115.3 50.8,120.9 48.3,116.6 56.3,113.9 57.1,115.3 	"/>
	<polygon points="109,83.5 115.3,77.9 117.8,82.3 109.8,84.9 109,83.5 	"/>
	<polygon points="56.3,84.9 48.3,82.3 50.8,77.9 57.1,83.5 56.3,84.9 	"/>
	<polygon points="109.8,113.9 117.8,116.6 115.3,120.9 109,115.3 109.8,113.9 	"/>
	<polygon points="68.5,126.2 65.9,134.1 61.6,131.6 67.1,125.4 68.5,126.2 	"/>
	<polygon points="97.6,72.7 100.2,64.7 104.5,67.2 99,73.5 97.6,72.7 	"/>
	<g>
		<path d="M76,111.2c-1-0.7-2.4-0.4-3.1,0.6c-0.2,0.3-0.3,0.7-0.4,1c0.1,0.9,0.6,1.6,1.3,2.1l-3.1-0.2V110c0-0.1,0-0.3,0-0.4
			c0-0.1,0.1-0.3,0.2-0.3c0.2-0.1,0.3-0.2,0.5-0.1c0.1,0,0.1,0,0.2,0c0.1,0,0.1-0.1,0.1-0.2c0-0.1,0-0.1-0.1-0.2
			c0,0-0.1-0.1-0.1-0.1h-2.9c-0.1,0-0.1,0-0.2,0.1c0,0.1,0,0.1,0,0.2c0,0.1,0,0.2,0.1,0.2h0.2c0.2,0,0.4,0,0.5,0.1
			c0.1,0.1,0.2,0.2,0.2,0.3c0,0.1,0,0.2,0,0.3v5.1c-0.7,0-1.3,0.1-1.9,0.4c-0.4,0.3-0.7,0.8-0.7,1.3c0,0.3,0.1,0.5,0.3,0.7
			c0.2,0.2,0.5,0.3,0.8,0.3c0.2,0,0.3-0.1,0.4-0.2c0.1-0.1,0.1-0.1,0.1-0.2c0,0,0,0-0.1-0.1c-0.1,0-0.2-0.1-0.2-0.2
			c-0.1-0.1-0.1-0.3-0.1-0.4c0-0.3,0.2-0.6,0.4-0.8c0.8-0.4,1.7-0.4,2.5-0.2c1,0.3,2,0.4,3,0.5c0.9,0,1.8-0.3,2.4-0.9
			C76.9,114.6,78.1,112.3,76,111.2z M76,114.9c-0.9-0.4-1.7-1-2.4-1.6c-0.5-0.6-0.3-1.4,0.2-1.9c0.2-0.2,0.6-0.3,0.9-0.3
			c1-0.1,2,0.6,2.2,1.6C77.1,113.6,76.7,114.4,76,114.9z"/>
		<path d="M77,116.5c-0.1-0.4-0.3-0.8-0.6-1.1l0,0c-0.1,0.2-0.3,0.5-0.5,0.6c-0.2,0.2-0.4,0.3-0.7,0.4c0.3,0.2,0.4,0.6,0.4,1
			c-0.1,0.6-0.3,0.9-0.6,1c-0.3,0.2-0.7,0.2-1,0.1c-0.4-0.1-0.8-0.3-1.1-0.6c-0.3-0.4-0.6-0.7-0.9-1.1l0,0l-0.3-0.3
			c-0.1-0.1-0.3-0.2-0.4-0.3c-0.2-0.2-0.5-0.3-0.8-0.3c-0.9-0.2-1.2,0.1-1.5,0.5c-0.2,0.3-0.2,0.5-0.2,0.8c0,0,0,0.1,0,0.1
			c0.1,0.2,0.2,0.5,0.4,0.6c0.1,0.1,0.3,0.2,0.4,0.2c0.1,0,0.2,0,0.2-0.1c0,0,0,0,0-0.1c0-0.1,0-0.2,0-0.3c0-0.1,0.1-0.3,0.2-0.4
			c0.2-0.2,0.5-0.3,0.7-0.4h0c0.3,0,0.4,0,1,0.5c0.2,0.2,0.6,0.6,0.8,0.8c0.4,0.3,0.8,0.5,1.3,0.6c0.2,0,0.4,0,0.6,0
			c0.2,0,0.5,0,0.7,0c0.4,0,0.8-0.2,1.1-0.5l0,0c0.1-0.1,0.2-0.2,0.3-0.3v-0.1C77,117.4,77.1,116.9,77,116.5z"/>
		<path d="M77.4,115C77.4,115,77.4,115,77.4,115C77.3,115,77.3,114.9,77.4,115c-0.1-0.2-0.1-0.2-0.1-0.2c0,0,0.1,0,0.1,0
			c0.1,0,0.2,0,0.3-0.1c0.1,0,0.1-0.1,0.2-0.2c0-0.1,0.1-0.2,0.1-0.2l1.2-2.8c0-0.1,0-0.2,0-0.2c0-0.1-0.1-0.1-0.1-0.1
			c-0.1,0-0.1,0-0.2-0.1h-0.1c0,0,0-0.1,0-0.1c0-0.1,0-0.1,0.1-0.1h0.2c0.2,0,0.3,0,0.5,0.1c0.1,0,0.2,0.1,0.3,0.2
			c0.1,0.1,0.2,0.3,0.3,0.4l1.1,2.8l0.1,0.2c0,0.1,0.1,0.1,0.1,0.2c0.1,0,0.1,0.1,0.2,0.1h0.1c0,0,0,0.1,0,0.1c0,0,0,0.1,0,0.1
			c0,0-0.1,0.1-0.1,0.1c-0.1,0-0.2,0-0.4,0h-0.4c-0.3,0-0.5,0-0.8,0c0,0-0.1,0-0.1-0.1c0,0,0-0.1,0-0.1c0-0.1,0-0.1,0-0.1h0.1
			c0.2,0,0.3,0,0.4-0.1c0-0.1,0-0.3-0.1-0.4l-0.2-0.6h-1.6c-0.1,0.2-0.1,0.3-0.1,0.4c0,0,0,0.1,0,0.1l0,0c0,0.1-0.1,0.2-0.1,0.3
			c0,0.1,0,0.1,0.1,0.1c0.1,0,0.2,0,0.4,0c0,0,0.1,0,0.1,0c0,0,0.1,0,0.1,0.1c0,0,0,0.1,0,0.1c0,0,0,0-0.1,0c-0.1,0-0.2,0-0.4,0
			h-0.8L77.4,115z M78.7,113.3h1.4l-0.7-1.7l0,0L78.7,113.3z"/>
		<path d="M83.9,115.1c-0.3,0-0.6,0-0.9-0.2c-0.2-0.1-0.4-0.3-0.5-0.5c-0.1-0.2-0.2-0.4-0.2-0.6v-2.2c0-0.1,0-0.2,0-0.2
			c0-0.1-0.1-0.1-0.1-0.2c-0.1-0.1-0.2-0.1-0.3-0.1h-0.1c0,0,0,0,0-0.1c0,0,0-0.1,0-0.1c0,0,0.1,0,0.1,0h0.4h0.4c0.3,0,0.6,0,0.8,0
			c0,0,0.1,0,0.1,0c0,0,0,0.1,0,0.1c0,0.1,0,0.1-0.1,0.1h-0.1c-0.1,0-0.2,0-0.3,0.1c-0.1,0-0.1,0.1-0.1,0.2c0,0.1,0,0.2,0,0.2v2.1
			c0,0.1,0,0.2,0,0.4c0,0.1,0.1,0.2,0.1,0.4c0.1,0.1,0.2,0.2,0.3,0.3c0.2,0.1,0.4,0.1,0.6,0.1c0.2,0,0.5,0,0.7-0.2
			c0.2-0.1,0.3-0.2,0.3-0.4c0.1-0.1,0.1-0.3,0.1-0.5V112c0-0.2,0-0.4,0-0.6c0-0.1-0.1-0.2-0.1-0.2c-0.1,0-0.2-0.1-0.3-0.1h-0.1
			c0,0,0,0,0-0.1c0,0,0-0.1,0-0.1c0,0,0.1,0,0.1,0H85h0.7h0.4c0,0,0.1,0,0.1,0c0,0,0,0.1,0,0.1c0,0,0,0.1,0,0.1h-0.1
			c-0.1,0-0.2,0-0.3,0c-0.1,0-0.1,0.1-0.2,0.1c-0.1,0.1-0.1,0.2-0.1,0.3c0,0.1,0,0.3,0,0.5v1.8c0,0.2-0.1,0.4-0.2,0.6
			c-0.1,0.2-0.2,0.3-0.4,0.4c-0.2,0.1-0.3,0.2-0.5,0.2C84.3,115.1,84.1,115.1,83.9,115.1z"/>
		<path d="M86.6,115C86.6,115,86.5,115,86.6,115C86.5,115,86.5,114.9,86.6,115c-0.1-0.2-0.1-0.2-0.1-0.2c0,0,0.1,0,0.1,0
			c0.1,0,0.2,0,0.3-0.1c0.1,0,0.1-0.1,0.1-0.2c0-0.1,0-0.2,0-0.2v-2.6c0-0.1,0-0.2,0-0.2c0-0.1-0.1-0.1-0.1-0.2
			c-0.1-0.1-0.2-0.1-0.3-0.1c0,0-0.1,0-0.1,0c0,0,0,0,0-0.1c0,0,0-0.1,0-0.1c0,0,0.1,0,0.1,0h1.9c0.3,0,0.6,0.1,0.9,0.2
			c0.2,0.1,0.4,0.2,0.5,0.4c0.1,0.2,0.1,0.3,0.2,0.5c0,0.3-0.1,0.5-0.3,0.7c-0.2,0.2-0.5,0.4-0.8,0.4c0.2,0.3,0.3,0.5,0.5,0.8
			c0.2,0.3,0.4,0.5,0.6,0.8c0.1,0,0.1,0.1,0.2,0.1c0.1,0,0.1,0.1,0.2,0.1h0.1c0,0,0.1,0,0.1,0.1c0,0,0,0.1,0,0.1c0,0-0.1,0-0.1,0.1
			h-0.2h-0.4c-0.2,0-0.3-0.1-0.5-0.2c-0.1-0.1-0.3-0.2-0.4-0.4c-0.1-0.2-0.2-0.3-0.3-0.5l-0.3-0.5c0-0.1-0.1-0.2-0.2-0.2
			c-0.1,0-0.2-0.1-0.3-0.1h-0.2v1.1c0,0.1,0,0.2,0,0.2c0,0.1,0,0.1,0.1,0.2c0.1,0.1,0.2,0.1,0.3,0.1c0,0,0.1,0,0.1,0
			c0,0,0,0,0.1,0.1c0,0,0,0.1,0,0.1c0,0-0.1,0-0.1,0H87C86.8,115,86.7,115,86.6,115z M87.7,112.8h0.6c0.2,0,0.4,0,0.5-0.1
			c0.2-0.1,0.4-0.3,0.4-0.5c0-0.1,0-0.2,0-0.3c0-0.1,0-0.3-0.1-0.4c-0.1-0.1-0.2-0.3-0.3-0.3c-0.2-0.1-0.4-0.1-0.7-0.1
			c-0.1,0-0.3,0-0.4,0.1c-0.1,0.1-0.1,0.3-0.1,0.4L87.7,112.8z"/>
		<path d="M91,115C91,115,90.9,115,91,115C90.9,115,90.9,114.9,91,115c-0.1-0.2-0.1-0.2,0-0.2c0,0,0.1,0,0.1,0c0.1,0,0.2,0,0.3-0.1
			c0.1,0,0.1-0.1,0.1-0.2c0-0.1,0-0.2,0-0.2v-2.7c0-0.1,0-0.2,0-0.2c0-0.1-0.1-0.1-0.1-0.2c-0.1-0.1-0.2-0.1-0.3-0.1
			c0,0-0.1,0-0.1,0c0,0,0,0-0.1-0.1c0,0,0-0.1,0-0.1c0,0,0.1,0,0.1,0h2.9c0,0,0.1,0,0.1,0c0,0,0.1,0.1,0,0.1v0.9c0,0,0,0.1-0.1,0.1
			c0,0-0.1,0-0.1,0c0,0-0.1,0-0.1,0c0,0-0.1-0.1-0.1-0.1c0-0.2-0.1-0.3-0.1-0.5c0-0.1-0.1-0.2-0.2-0.3c-0.1-0.1-0.2-0.1-0.4-0.1
			h-0.9v1.7h1.2c0,0,0.1,0,0.1,0c0,0,0,0.1,0,0.1s0,0.1,0,0.1c0,0-0.1,0-0.1,0h-1.2v1.2c0,0.1,0,0.1,0,0.2c0,0.1,0.1,0.1,0.1,0.2
			c0.1,0.1,0.2,0.1,0.3,0.1h0.6c0.1,0,0.2,0,0.4-0.1c0.1-0.1,0.2-0.1,0.2-0.2c0.1-0.2,0.1-0.3,0.2-0.5c0,0,0-0.1,0.1-0.1h0.1
			c0,0,0.1,0,0.1,0.1c0,0,0,0.1,0,0.1l-0.1,0.8c0,0.1,0,0.1-0.1,0.1c0,0-0.1,0-0.1,0h-2.4C91.3,114.9,91.1,115,91,115z"/>
		<path d="M95,115C95,115,94.9,115,95,115C94.9,115,94.9,114.9,95,115c-0.1-0.2-0.1-0.2,0-0.2c0,0,0.1,0,0.1,0c0.1,0,0.2,0,0.3-0.1
			c0.1,0,0.1-0.1,0.1-0.2c0-0.1,0-0.2,0-0.2v-2.6c0-0.2,0-0.3-0.1-0.4c-0.1-0.1-0.2-0.1-0.3-0.1h-0.1c0,0,0-0.1,0-0.1
			c0-0.1,0-0.1,0.1-0.1h0.2c0.2,0,0.4,0,0.6,0.1c0.2,0,0.3,0.1,0.4,0.2c0.1,0.1,0.3,0.3,0.4,0.4l1.8,2.4l0,0v-2.3c0-0.1,0-0.2,0-0.2
			c0-0.1-0.1-0.1-0.1-0.2c-0.1-0.1-0.2-0.1-0.3-0.1c0,0-0.1,0-0.1,0c0,0,0,0-0.1-0.1c0,0,0-0.1,0-0.1c0,0,0,0,0.1,0h1.3
			c0,0,0.1,0,0.1,0c0,0,0,0.1,0,0.1c0,0.1,0,0.1,0,0.1c0,0-0.1,0-0.1,0c-0.1,0-0.2,0-0.3,0.1c-0.1,0-0.1,0.1-0.1,0.2
			c0,0.1,0,0.2,0,0.2v3.4c0,0,0,0.1-0.1,0.1h-0.1c-0.1,0-0.1,0-0.2-0.1l-2.5-3.5l0,0v2.6c0,0.1,0,0.2,0,0.2c0,0.1,0,0.1,0.1,0.2
			c0.1,0.1,0.2,0.1,0.3,0.1h0.1c0,0,0,0.1,0,0.1c0,0,0,0.1,0,0.1c0,0,0,0.1-0.1,0.1H96h-0.8L95,115z"/>
		<path d="M78.7,117.3L78.7,117.3L78.7,117.3L78.7,117.3L78.7,117.3c0.1,0,0.1,0,0.2,0v-0.1c0,0,0-0.1,0-0.1v-1c0,0,0-0.1,0-0.1
			c0,0,0-0.1,0-0.1h-0.1h-0.1l0,0l0,0h0.9c0,0,0.1,0,0.1,0.1c0,0,0.1,0.1,0.1,0.1c0,0.1,0,0.1,0,0.2c0,0.1,0,0.1,0,0.2
			c0,0.1-0.1,0.1-0.1,0.1c0,0-0.1,0-0.2,0.1l0,0c0.1,0,0.2,0,0.2,0c0.1,0,0.1,0.1,0.2,0.1c0,0.1,0.1,0.1,0.1,0.2
			c0,0.1,0,0.2-0.1,0.2c0,0.1-0.1,0.1-0.2,0.2c-0.1,0-0.1,0.1-0.2,0.1c-0.1,0-0.2,0-0.2,0h-0.4L78.7,117.3z M79.1,116.4h0.2
			c0,0,0.1,0,0.1,0c0,0,0.1,0,0.1-0.1c0-0.1,0-0.1,0-0.2c0-0.1,0-0.1-0.1-0.2c-0.1-0.1-0.2-0.1-0.2-0.1h-0.2L79.1,116.4z
			 M79.3,117.2c0.1,0,0.1,0,0.2,0c0.1,0,0.1-0.1,0.2-0.1c0-0.1,0-0.2,0-0.2c0,0,0-0.1,0-0.2c0-0.1-0.1-0.1-0.2-0.1
			c-0.1,0-0.2,0-0.3,0h-0.1v0.5c0,0.1,0,0.1,0,0.2C79.1,117.2,79.2,117.2,79.3,117.2L79.3,117.2z"/>
		<path d="M80.4,117.3L80.4,117.3L80.4,117.3L80.4,117.3L80.4,117.3c0,0,0.1,0,0.1,0c0,0,0-0.1,0-0.1V116c0,0,0-0.1,0-0.1
			c0,0-0.1,0-0.1,0l0,0l0,0l0,0l0,0h1.1l0,0v0.3l0,0h-0.1l0,0l0,0c0-0.1,0-0.1,0-0.2c0,0,0-0.1-0.1-0.1c0,0-0.1,0-0.1,0H81v0.5h0.5
			l0,0l0,0H81v0.5c0,0,0,0,0,0.1c0,0,0,0.1,0.1,0.1c0,0,0.1,0,0.1,0h0.2h0.1c0,0,0.1-0.1,0.1-0.1c0-0.1,0-0.1,0.1-0.2l0,0l0,0l0,0
			l0,0l-0.1,0.3c0,0,0,0,0,0.1l0,0h-1.2V117.3z"/>
		<path d="M82,117.3L82,117.3L82,117.3L82,117.3L82,117.3c0,0,0.1,0,0.1,0c0,0,0,0,0.1-0.1v-0.1l0.4-1c0,0,0-0.1,0-0.1l0,0
			c0,0-0.1,0-0.1,0l0,0l0,0l0,0h0.2c0,0,0.1,0,0.1,0.1c0,0,0.1,0.1,0.1,0.2l0.4,1c0,0,0,0.1,0,0.1l0.1,0.1c0,0,0.1,0,0.1,0h0.1l0,0
			l0,0H83l0,0l0,0l0,0c0.1,0,0.1,0,0.1,0c0,0,0-0.1,0-0.2l-0.1-0.2h-0.6v0.1v0.1l0,0c0,0,0,0.1,0,0.1l0,0h0.2c0,0,0,0,0,0.1s0,0,0,0
			l0,0h-0.5L82,117.3z M82.5,116.7H83l-0.2-0.6l0,0L82.5,116.7z"/>
		<path d="M84.7,117.3c-0.1,0-0.2,0-0.3-0.1c-0.1,0-0.2-0.1-0.2-0.2c0-0.1-0.1-0.1-0.1-0.2V116c0,0,0-0.1,0-0.1c0,0,0-0.1,0-0.1
			c0,0-0.1,0-0.1,0l0,0l0,0l0,0l0,0h0.6l0,0l0,0l0,0l0,0c0,0-0.1,0-0.1,0v0.1c0,0,0,0.1,0,0.1v0.8c0,0,0,0.1,0,0.1v0.1
			c0,0,0.1,0.1,0.1,0.1c0.1,0,0.1,0,0.2,0c0.1,0,0.2,0,0.3-0.1c0.1,0,0.1-0.1,0.1-0.1c0-0.1,0-0.1,0-0.2v-0.7c0-0.1,0-0.2,0-0.2
			c0,0,0-0.1,0-0.1H85l0,0l0,0l0,0h0.6l0,0l0,0l0,0h-0.1c0,0,0,0-0.1,0c0,0,0,0.1,0,0.1v0.9c0,0.1,0,0.2-0.1,0.2
			c0,0.1-0.1,0.1-0.1,0.2c-0.1,0-0.1,0.1-0.2,0.1C85,117.3,84.9,117.4,84.7,117.3C84.7,117.3,84.7,117.3,84.7,117.3z"/>
		<path d="M86.3,117.3L86.3,117.3L86.3,117.3L86.3,117.3L86.3,117.3c0,0,0.1,0,0.1,0c0,0,0-0.1,0-0.1c0,0,0-0.1,0-0.1v-1.2h-0.2
			c0,0-0.1,0-0.1,0c0,0-0.1,0.1-0.1,0.1c0,0.1,0,0.1,0,0.2l0,0H86l0,0l0,0v-0.4l0,0h1.3l0,0v0.4l0,0h-0.1l0,0c0-0.1,0-0.1-0.1-0.2
			c0,0,0-0.1-0.1-0.1c0,0-0.1,0-0.1,0h-0.2v1.2c0,0,0,0.1,0,0.1c0,0,0,0.1,0,0.1c0,0,0.1,0,0.1,0l0,0c0,0,0,0,0,0.1s0,0,0,0l0,0
			L86.3,117.3L86.3,117.3z"/>
		<path d="M88.1,117.3L88.1,117.3L88.1,117.3L88.1,117.3L88.1,117.3c0,0,0.1,0,0.1,0v-0.1c0,0,0-0.1,0-0.1v-0.3c0,0,0,0,0-0.1
			c0-0.1,0-0.1-0.1-0.2l-0.1-0.2l-0.1-0.2l-0.1-0.1c0-0.1-0.1-0.1-0.1-0.1l-0.1-0.1h-0.1l0,0l0,0h0.2c0.1,0,0.2,0,0.3,0
			c0.1,0.1,0.1,0.1,0.2,0.2c0,0.1,0.1,0.2,0.1,0.3l0.1,0.3l0,0l0.3-0.5c0-0.1,0-0.1,0-0.1c0,0-0.1,0-0.1,0l0,0l0,0l0,0l0,0h0.5l0,0
			l0,0l0,0l0,0c-0.1,0-0.1,0-0.2,0c0,0-0.1,0.1-0.1,0.1l-0.3,0.5v0.1c0,0,0,0,0,0.1c0,0,0,0.1,0,0.1v0.2c0,0,0,0.1,0,0.1
			c0,0,0,0.1,0,0.1h0.1l0,0l0,0l0,0L88.1,117.3L88.1,117.3z"/>
		<path d="M90.9,117.3c-0.1,0-0.3,0-0.4-0.1c-0.1-0.1-0.1-0.2-0.1-0.3c0-0.1,0-0.1,0.1-0.2c0,0,0.1-0.1,0.2-0.1h0.1c0,0,0,0,0,0.1
			l0,0c0,0-0.1,0.1-0.1,0.1c0,0.1,0,0.1,0.1,0.2c0.1,0,0.1,0.1,0.2,0.1c0.1,0,0.1,0,0.2-0.1c0.1,0,0.1-0.1,0.1-0.1
			c0.1-0.1,0.1-0.2,0-0.3c0,0-0.1-0.1-0.2-0.1l-0.2-0.1c-0.1,0-0.1-0.1-0.2-0.1c-0.1,0-0.1-0.1-0.2-0.1c0-0.1-0.1-0.1-0.1-0.2
			c0-0.1,0-0.2,0.1-0.3c0-0.1,0.1-0.1,0.2-0.1c0.1,0,0.2,0,0.3,0c0.1,0,0.1,0,0.2,0c0.1,0,0.1,0.1,0.2,0.1c0.1,0,0.1,0.1,0.1,0.2
			c0,0.1,0,0.1-0.1,0.2c0,0-0.1,0.1-0.2,0.1c0,0-0.1,0-0.1,0l0,0l0,0c0,0,0,0,0.1,0s0,0,0-0.1c0-0.1,0-0.1-0.1-0.1
			c-0.1,0-0.1,0-0.2,0c-0.1,0-0.2,0-0.2,0.1c-0.1,0-0.1,0.1-0.1,0.2c0,0,0,0.1,0,0.2c0,0,0.1,0.1,0.2,0.1c0.1,0,0.2,0.1,0.2,0.1
			l0.2,0.1c0.1,0,0.1,0.1,0.2,0.2c0,0.1,0.1,0.2,0.1,0.2c0,0.1,0,0.2-0.1,0.2c-0.1,0.1-0.1,0.1-0.2,0.2
			C91,117.4,90.9,117.4,90.9,117.3z"/>
		<path d="M91.8,117.3L91.8,117.3L91.8,117.3L91.8,117.3L91.8,117.3c0,0,0.1,0,0.1,0c0,0,0.1,0,0.1-0.1v-0.1l0.4-1c0,0,0-0.1,0-0.1
			l0,0c0,0-0.1,0-0.1,0h-0.1l0,0l0,0h0.2c0,0,0.1,0,0.1,0.1c0,0.1,0.1,0.1,0.1,0.2l0.4,1c0,0,0,0.1,0,0.1c0,0,0,0.1,0.1,0.1
			c0,0,0,0,0.1,0h0.1l0,0l0,0h-0.6l0,0l0,0l0,0c0.1,0,0.1,0,0.1,0c0,0,0-0.1,0-0.2l-0.1-0.2h-0.6c0,0,0,0.1,0,0.1v0.1l0,0
			c0,0,0,0.1,0,0.1l0,0h0.2c0,0,0,0,0,0.1s0,0,0,0l0,0h-0.5L91.8,117.3z M92.3,116.7h0.5l-0.2-0.6l0,0L92.3,116.7z"/>
		<path d="M93.8,117.3L93.8,117.3L93.8,117.3L93.8,117.3L93.8,117.3c0,0,0.1,0,0.1,0v-0.1c0,0,0-0.1,0-0.1v-1c0,0,0-0.1,0-0.1
			c0,0,0-0.1,0-0.1h-0.1l0,0l0,0l0,0l0,0h0.6l0,0l0,0l0,0l0,0c0,0-0.1,0-0.1,0v0.1c0,0,0,0.1,0,0.1v1c0,0,0,0,0,0.1c0,0,0,0,0,0.1
			c0,0,0.1,0,0.1,0h0.2c0,0,0.1,0,0.1,0c0,0,0.1,0,0.1-0.1c0,0,0-0.1,0.1-0.2s0,0,0,0H95l0,0v0.3l0,0L93.8,117.3L93.8,117.3z"/>
		<path d="M96.2,117.3c-0.3,0-0.6-0.2-0.8-0.5c0-0.1-0.1-0.2-0.1-0.3c0-0.1,0-0.3,0.1-0.4c0.1-0.2,0.3-0.4,0.5-0.4
			c0.1,0,0.2-0.1,0.3-0.1c0.1,0,0.2,0,0.3,0.1c0.1,0,0.2,0.1,0.2,0.2c0.1,0.1,0.1,0.2,0.2,0.3c0,0.1,0.1,0.2,0.1,0.3
			c0,0.1,0,0.3-0.1,0.4c0,0.1-0.1,0.2-0.2,0.3c-0.1,0.1-0.2,0.1-0.3,0.2C96.4,117.3,96.3,117.3,96.2,117.3z M96.2,117.2
			c0.1,0,0.2,0,0.3-0.1c0.1-0.1,0.1-0.2,0.2-0.3c0-0.1,0.1-0.2,0.1-0.4c0-0.1,0-0.2-0.1-0.3c0-0.1-0.1-0.2-0.2-0.3
			c-0.1-0.1-0.2-0.1-0.3-0.1c-0.1,0-0.2,0-0.3,0.1c-0.1,0.1-0.1,0.2-0.2,0.3c0,0.1,0,0.2,0,0.4c0,0.1,0,0.2,0.1,0.4
			c0,0.1,0.1,0.2,0.2,0.3C96.1,117.2,96.1,117.2,96.2,117.2L96.2,117.2z"/>
		<path d="M97.5,117.3L97.5,117.3L97.5,117.3L97.5,117.3L97.5,117.3c0,0,0.1,0,0.1,0c0,0,0-0.1,0-0.1c0,0,0-0.1,0-0.1v-1
			c0,0,0-0.1,0-0.2c0,0-0.1,0-0.1,0l0,0l0,0l0,0h0.1c0.1,0,0.2,0,0.2,0c0.1,0,0.1,0,0.2,0.1c0.1,0,0.1,0.1,0.1,0.2l0.7,0.9l0,0v-0.8
			c0,0,0-0.1,0-0.1c0,0,0,0,0-0.1c0,0-0.1,0-0.1,0l0,0l0,0l0,0l0,0h0.5l0,0l0,0l0,0l0,0c0,0-0.1,0-0.1,0c0,0,0,0.1,0,0.1
			c0,0,0,0.1,0,0.1v1.2l0,0l0,0c0,0,0,0-0.1,0l-1.2-1.5l0,0v1c0,0,0,0.1,0,0.1c0,0,0,0.1,0,0.1c0,0,0.1,0,0.1,0l0,0c0,0,0,0,0,0.1
			s0,0,0,0l0,0L97.5,117.3L97.5,117.3z"/>
	</g>
</g>
</svg>
