<?xml version="1.0" encoding="utf-8"?>
<!-- Generator: Adobe Illustrator 26.0.3, SVG Export Plug-In . SVG Version: 6.00 Build 0)  -->
<svg version="1.1" id="Layer_1" xmlns="http://www.w3.org/2000/svg" xmlns:xlink="http://www.w3.org/1999/xlink" x="0px" y="0px"
	 viewBox="0 0 140 140" style="enable-background:new 0 0 140 140;" xml:space="preserve">
<style type="text/css">
	.st0{fill:#010101;}
	.st1{fill:#FFFFFF;}
</style>
<g id="Layer_2_00000075854948183304015730000007010756165947205818_">
	<g id="Layer_1-2">
		<path class="st0" d="M89.4,108c-8.7,11.9-16,20.5-16.1,20.6l-3.2,3.8l-3.3-3.8c-0.1-0.1-7.4-8.7-16.1-20.6h-1.4l-25.6,31.1h92.7
			l-25.6-31L89.4,108z"/>
		<path d="M70,0.9c-25.3,0-45.8,20.5-45.8,45.8c0,0,0,0,0,0c0,16,18.3,43.3,31.7,61.3c7.8,10.5,14.1,17.8,14.1,17.8
			s6.2-7.3,14.1-17.8c13.5-18,31.7-45.3,31.7-61.3C115.8,21.4,95.3,0.9,70,0.9z"/>
		<path class="st1" d="M90.9,37.7c-10.2-5.5-18.4,2.6-18.4,8.8c0,6.6,6.8,11.4,6.8,11.4l-16.6-0.8V30.9c0-0.7,0.1-1.4,0.2-2.1
			c0.1-0.7,0.5-1.4,1.1-1.8c0.8-0.6,1.9-0.8,2.9-0.7c0.4,0,0.7,0,1.1-0.2c0.3-0.1,0.5-0.5,0.5-1.2c0-0.4-0.1-0.7-0.3-1
			c-0.2-0.2-0.5-0.3-0.8-0.3l-1.6,0.1h-12l-2-0.1c-0.3,0-0.6,0.1-0.8,0.4c-0.2,0.3-0.2,0.7-0.2,1c0.1,0.7,0.2,1.2,0.5,1.2
			c0.3,0.1,0.7,0.1,1.1,0.2c1-0.1,2,0.2,2.9,0.7c0.5,0.5,0.9,1.1,1.1,1.9c0.1,0.5,0.1,0.9,0.2,1.4v26.8c-4.4,0-7.8,0.7-10.2,2.3
			c-2.3,1.5-3.7,4.1-3.5,6.8c-0.1,1.4,0.5,2.8,1.6,3.8c1.1,1,2.5,1.5,4,1.5c0.9,0.1,1.7-0.2,2.4-0.8c0.3-0.3,0.6-0.7,0.7-1.2
			c0-0.1-0.2-0.2-0.6-0.4c-0.4-0.3-0.8-0.6-1.2-1c-0.5-0.7-0.7-1.4-0.8-2.2c0.1-1.7,0.9-3.4,2.2-4.5c1.6-1.2,6.7-2.3,13.2-0.8
			c6.9,1.7,9.6,2.4,15.7,2.5c6.5,0,10.6-2.4,13-4.7C95.8,55.5,102,43.6,90.9,37.7z M91.2,57.3c0,0-10.1-5.1-12.6-8.6
			s-2.3-10.8,5.8-11.5c6.6-0.5,11.4,4.6,11.9,8.4C97.3,52.8,91.2,57.3,91.2,57.3z"/>
		<path class="st1" d="M96.5,65.1C96,63,95,61,93.5,59.3L93.3,59c-0.7,1.3-1.6,2.4-2.7,3.3c-1,0.9-2.2,1.5-3.5,2
			c1.5,1.3,2.3,3.2,2.1,5.1c-0.4,3.1-1.4,4.7-3.2,5.5c-1.2,0.6-2.2,1.1-5.5,0.7c-2.3-0.3-4.3-1.5-5.7-3.4c-1.2-1.6-3.1-3.8-4.9-5.7
			l0,0L68.2,65c-0.7-0.7-1.4-1.3-2.2-1.8c-1.3-0.8-2.8-1.5-4.3-1.8c-4.7-0.8-6.6,0.8-7.8,2.5c-0.8,1.3-1.3,2.9-1.3,4.5
			c0,0.2,0,0.3,0.1,0.4c0.3,1.3,1,2.5,2,3.4c0.6,0.6,1.4,0.9,2.3,0.9c0.4,0,0.9-0.2,1.2-0.4c0.1-0.1,0-0.2-0.2-0.7
			c-0.2-0.5-0.3-1-0.2-1.6c0.1-0.8,0.4-1.5,0.9-2.1c1-1,2.4-1.7,3.9-1.9h0.7c1.5,0.1,2.3,0.2,5.3,2.8c1.1,1,3.3,3.4,4.4,4.3
			c1.9,1.7,4.2,2.8,6.8,3.1c1.1,0.2,2.2,0.2,3.4,0.2c1.3,0,2.6,0,3.9-0.2c2.2-0.3,4.3-1.1,6-2.6l0.1-0.1c0.5-0.5,1-1,1.5-1.6
			l0.2-0.3C96.5,70.1,97,67.6,96.5,65.1z"/>
	</g>
</g>
</svg>
