<svg width="160" height="50" viewBox="0 0 160 50" fill="none" xmlns="http://www.w3.org/2000/svg">
<path d="M44.9906 13.2668C35.3469 8.10534 27.8471 15.7008 27.8471 21.5886C27.8471 27.77 34.2481 32.267 34.2481 32.267L18.7491 31.4943V6.95405C18.7952 6.26637 18.8643 5.60186 18.9719 4.96054C19.0932 4.28846 19.4504 3.6825 19.9785 3.25292C20.7591 2.72857 21.6946 2.48862 22.6296 2.57296C22.9691 2.57721 23.3077 2.53563 23.6362 2.44934C23.9128 2.37207 24.0742 1.99346 24.1126 1.3135C24.0948 0.994218 23.9941 0.6852 23.8206 0.417193C23.7395 0.286672 23.626 0.179595 23.4913 0.106451C23.3566 0.0333073 23.2053 -0.00339293 23.0522 -5.36537e-05L21.5922 0.0617606H10.3656L8.51375 -5.36537e-05C8.35962 -0.0100992 8.20579 0.0237113 8.06989 0.0975051C7.93399 0.171299 7.82151 0.282092 7.74533 0.417193C7.58467 0.688278 7.49972 0.997927 7.49943 1.3135C7.53786 1.99346 7.69922 2.37207 7.97585 2.44934C8.30698 2.53577 8.6481 2.57735 8.99017 2.57296C9.93305 2.47996 10.8787 2.72041 11.6643 3.25292C12.1704 3.70592 12.5135 4.3144 12.6402 4.98372C12.7227 5.41284 12.7817 5.84619 12.8169 6.28182V31.4479C8.71866 31.4479 5.55278 32.1743 3.31924 33.6269C2.24944 34.3032 1.37804 35.2538 0.794629 36.3809C0.211214 37.508 -0.0631725 38.771 -0.000325196 40.0401C-0.0194839 40.7007 0.0999391 41.3579 0.350167 41.969C0.600395 42.58 0.975817 43.1312 1.45198 43.5867C1.95785 44.0588 2.55172 44.4255 3.1993 44.6656C3.84688 44.9056 4.53534 45.0143 5.22492 44.9853C5.61797 45.0087 6.01169 44.9523 6.38264 44.8196C6.75359 44.6868 7.09419 44.4804 7.38417 44.2126C7.69652 43.9274 7.91387 43.5524 8.00659 43.1386C8.00659 43.0613 7.82985 42.9299 7.47638 42.7522C7.05382 42.5168 6.6889 42.1895 6.40828 41.7941C5.98589 41.1925 5.74327 40.4821 5.70902 39.7465C5.74647 38.928 5.95141 38.1261 6.31104 37.3909C6.67066 36.6557 7.17725 36.003 7.79912 35.4736C9.29753 34.3146 14.0003 33.2869 20.0938 34.7009C26.5639 36.2463 29.0766 36.9494 34.6938 37.019C40.7105 37.0962 44.5833 34.8323 46.781 32.661C49.5242 29.9799 55.3258 18.7606 44.9906 13.2668ZM45.2595 31.7184C45.2595 31.7184 35.7849 26.9123 33.5104 23.6748C31.2359 20.4373 31.3972 13.5141 38.9354 12.9578C45.0828 12.5096 49.6395 17.277 50.1082 20.8468C50.9612 27.4377 45.2595 31.7184 45.2595 31.7184Z" fill="#3F1336"/>
<path d="M50.2084 39.0048C49.7655 36.973 48.8072 35.0911 47.4268 33.542L47.1886 33.287C46.5552 34.4759 45.6932 35.5265 44.6528 36.3777C43.6911 37.1777 42.6028 37.8097 41.4331 38.2476C42.1245 38.8333 42.665 39.5782 43.0088 40.4189C43.3526 41.2597 43.4895 42.1715 43.4079 43.0768C43.0545 45.9048 42.117 47.4965 40.4188 48.2847C39.3584 48.7869 38.3133 49.32 35.2627 49.0032C34.2128 48.8573 33.203 48.5002 32.2934 47.9533C31.3837 47.4063 30.593 46.6807 29.9683 45.8198C28.7849 44.3208 27.0483 42.25 25.3578 40.4574C24.8276 39.8856 24.3051 39.3525 23.821 38.9121C23.1911 38.2786 22.5072 37.7021 21.777 37.189C20.5465 36.3882 19.1784 35.8248 17.7428 35.5277C13.3628 34.7551 11.5954 36.2231 10.4428 37.8458C9.6346 39.1162 9.21019 40.5951 9.22102 42.1032C9.22102 42.25 9.22102 42.3891 9.27481 42.5282C9.50728 43.7599 10.1628 44.8702 11.1267 45.6653C11.4074 45.9445 11.7413 46.1637 12.1084 46.3097C12.4755 46.4558 12.8682 46.5257 13.2629 46.5152C13.6838 46.5109 14.0926 46.3729 14.4309 46.1212C14.4847 46.0671 14.4309 45.8507 14.2849 45.4798C14.1109 45.0221 14.0401 44.5312 14.0774 44.0426C14.1529 43.3133 14.4356 42.6212 14.8919 42.0491C15.8781 41.0366 17.1802 40.3956 18.5804 40.2333C18.8105 40.214 19.0418 40.214 19.2719 40.2333C20.6474 40.3338 21.4542 40.3492 24.2052 42.8836C25.2349 43.834 27.2788 46.0207 28.3546 46.8784C30.1133 48.4638 32.3066 49.479 34.648 49.7914C35.6974 49.9334 36.755 50.0057 37.8139 50.0077C39.0224 50.0425 40.2318 49.9908 41.4331 49.8532C43.4971 49.5871 45.4471 48.7498 47.0656 47.4347L47.1194 47.3883C47.5889 46.9408 48.0207 46.4549 48.4103 45.9357L48.6409 45.6189C49.3488 44.6886 49.8542 43.619 50.1242 42.4795C50.3943 41.34 50.423 40.1561 50.2084 39.0048Z" fill="#3F1336"/>
<path d="M52.2524 31.8189C52.1618 31.8269 52.0707 31.8095 51.9893 31.7686C51.9079 31.7277 51.8394 31.6648 51.7914 31.5871C51.7061 31.4363 51.6611 31.266 51.6608 31.0926C51.6608 30.7217 51.7683 30.5053 51.922 30.4667C52.1047 30.4164 52.2936 30.393 52.483 30.3972C52.9459 30.4202 53.4039 30.2929 53.7893 30.034C54.116 29.7791 54.3791 29.451 54.5577 29.0759C54.7421 28.6818 54.9188 28.3032 55.0956 27.855L60.851 14.1709C60.9525 13.9892 61.0164 13.7888 61.0388 13.5816C61.0613 13.3745 61.0418 13.1649 60.9817 12.9655C60.9164 12.8272 60.8243 12.7033 60.7109 12.6011C60.5974 12.4989 60.4648 12.4206 60.3208 12.3706C59.9928 12.2421 59.6531 12.1464 59.3065 12.0847C59.0803 12.0504 58.8587 11.9907 58.6457 11.907C58.5381 11.8503 58.4843 11.6571 58.4843 11.3275C58.4843 10.9488 58.6149 10.748 58.8762 10.717C59.1819 10.677 59.49 10.6589 59.7983 10.663C60.5753 10.648 61.3508 10.739 62.1035 10.9334C62.7358 11.1035 63.3065 11.452 63.748 11.9379C64.3081 12.5969 64.7431 13.3538 65.0312 14.1709L70.5561 27.855C70.7098 28.2259 70.8712 28.6277 71.0479 29.0063C71.2053 29.3838 71.4472 29.7196 71.7549 29.9876C72.0784 30.2471 72.4784 30.3911 72.8921 30.3972C73.0841 30.3909 73.2759 30.4144 73.4608 30.4667C73.6068 30.4667 73.6913 30.7217 73.7067 31.0926C73.7082 31.2684 73.6573 31.4406 73.5607 31.5871C73.5139 31.6624 73.4479 31.7236 73.3694 31.7644C73.291 31.8052 73.2031 31.824 73.115 31.8189C72.4157 31.7725 71.801 31.7493 71.2785 31.7339H69.5034C68.2125 31.7339 66.8524 31.7725 65.4231 31.8343C65.3335 31.8427 65.2433 31.8254 65.1631 31.7844C65.0829 31.7433 65.0158 31.6803 64.9698 31.6025C64.8786 31.4539 64.8307 31.2826 64.8314 31.108C64.8314 30.7371 64.9467 30.5208 65.1004 30.4821C65.2805 30.4324 65.4669 30.4089 65.6536 30.4126C66.7294 30.4126 67.3134 30.2117 67.4133 29.8176C67.4801 29.1528 67.3742 28.4819 67.106 27.8705L65.961 25.112H57.8465C57.5161 25.9465 57.2779 26.5492 57.1396 26.9278C57.0013 27.3064 56.909 27.546 56.8706 27.6541C56.8533 27.724 56.8275 27.7915 56.7938 27.855C56.5944 28.3919 56.4678 28.9532 56.4173 29.524C56.4025 29.6863 56.4476 29.8484 56.5439 29.9795C56.6403 30.1106 56.7811 30.2015 56.9398 30.2349C57.5374 30.3672 58.1495 30.4217 58.7609 30.3972C58.9554 30.3905 59.1498 30.4139 59.3372 30.4667C59.4832 30.4667 59.5601 30.7217 59.5831 31.0926C59.5846 31.2684 59.5338 31.4406 59.4371 31.5871C59.3904 31.6624 59.3243 31.7236 59.2459 31.7644C59.1675 31.8052 59.0796 31.824 58.9915 31.8189C58.2922 31.7725 57.6851 31.7493 57.1703 31.7339H55.4106H54.3118H53.4051L52.2524 31.8189ZM58.4997 23.6903H65.4154L62.0959 15.1909H61.996L58.4997 23.6903Z" fill="#3F1336"/>
<path d="M84.1418 32.3829C82.6214 32.4335 81.1112 32.1155 79.7387 31.4557C78.6486 30.9251 77.7257 30.1014 77.0723 29.0759C76.4925 28.1506 76.1861 27.0788 76.1887 25.9852V14.7272C76.1899 14.3226 76.1513 13.9189 76.0734 13.5219C76.001 13.151 75.8093 12.8143 75.5278 12.5638C75.0929 12.2732 74.5727 12.1397 74.0525 12.1851C73.8637 12.1877 73.6753 12.1669 73.4915 12.1233C73.3378 12.077 73.2456 11.8683 73.2303 11.4897C73.2268 11.3158 73.2721 11.1445 73.3609 10.9952C73.4075 10.9162 73.4758 10.8523 73.5575 10.8112C73.6393 10.7701 73.7311 10.7535 73.8219 10.7634L75.7891 10.833C76.4038 10.833 77.0416 10.833 77.6948 10.833C79.0318 10.833 80.3996 10.833 81.8058 10.7325C81.8967 10.7226 81.9884 10.7392 82.0702 10.7803C82.1519 10.8214 82.2202 10.8853 82.2668 10.9643C82.3521 11.115 82.3971 11.2854 82.3975 11.4588C82.3975 11.7911 82.313 11.992 82.1977 12.0538C82.0565 12.1302 81.8967 12.165 81.7366 12.1542C81.1838 12.1085 80.6301 12.2296 80.146 12.5019C79.9939 12.6106 79.8646 12.7485 79.7657 12.9076C79.6668 13.0667 79.6002 13.244 79.5697 13.4291C79.5036 13.8489 79.46 14.2719 79.4391 14.6963V25.0425C79.4423 25.6472 79.504 26.2502 79.6235 26.8428C79.7384 27.4697 79.9789 28.0664 80.3304 28.5968C80.7127 29.1704 81.2443 29.6275 81.8673 29.9181C82.7424 30.2946 83.6903 30.4689 84.6413 30.4281C85.8347 30.4883 87.0219 30.2212 88.0761 29.6554C88.8189 29.24 89.4089 28.5952 89.7589 27.8164C90.0651 27.0825 90.2218 26.2943 90.22 25.4984V16.8135C90.243 15.7575 90.189 14.7013 90.0586 13.6532C90.0458 13.4079 89.9749 13.1691 89.852 12.9568C89.729 12.7445 89.5575 12.5647 89.3517 12.4324C88.82 12.2407 88.2559 12.1566 87.6919 12.1851C87.5031 12.1877 87.3147 12.1669 87.1309 12.1233C86.9773 12.077 86.8927 11.8683 86.8697 11.4897C86.8662 11.3158 86.9115 11.1445 87.0003 10.9952C87.0469 10.9162 87.1152 10.8523 87.197 10.8112C87.2787 10.7701 87.3705 10.7535 87.4614 10.7634L89.3363 10.833C89.8819 10.833 90.4812 10.833 91.1421 10.833C91.8029 10.833 92.4023 10.833 92.9479 10.833L94.8228 10.7634C94.9135 10.7554 95.0045 10.7728 95.0859 10.8137C95.1673 10.8546 95.2359 10.9175 95.2838 10.9952C95.3691 11.1459 95.4141 11.3163 95.4145 11.4897C95.4145 11.822 95.33 12.0229 95.2147 12.0847C95.0735 12.1611 94.9137 12.1959 94.7536 12.1851C94.2752 12.1753 93.7968 12.2089 93.3244 12.2856C93.1601 12.3099 93.0024 12.3677 92.861 12.4554C92.7197 12.5431 92.5976 12.6588 92.5022 12.7956C92.279 13.2008 92.1552 13.6538 92.141 14.1168C92.0872 14.7272 92.0642 15.554 92.0642 16.6126V25.8384C92.0881 26.8923 91.8222 27.9324 91.2958 28.8441C90.8285 29.6738 90.1729 30.3807 89.3824 30.9071C88.5943 31.4083 87.7337 31.7836 86.8313 32.0198C85.9539 32.256 85.05 32.378 84.1418 32.3829Z" fill="#3F1336"/>
<path d="M97.3202 31.8189C97.2295 31.8269 97.1384 31.8095 97.057 31.7686C96.9756 31.7277 96.9071 31.6648 96.8591 31.5871C96.7738 31.4363 96.7288 31.266 96.7285 31.0926C96.7285 30.7217 96.8361 30.5053 96.9897 30.4667C97.1725 30.4169 97.3614 30.3935 97.5507 30.3972C98.0714 30.4491 98.5937 30.315 99.026 30.0185C99.3117 29.7715 99.5043 29.4332 99.5716 29.0604C99.6495 28.6634 99.6881 28.2597 99.6869 27.855V14.7659C99.6873 14.3536 99.6488 13.9422 99.5716 13.5373C99.5064 13.1594 99.3138 12.8156 99.026 12.5637C98.5911 12.2732 98.0709 12.1397 97.5507 12.1851C97.3619 12.1872 97.1736 12.1664 96.9897 12.1233C96.8361 12.077 96.7515 11.8683 96.7285 11.4897C96.7288 11.3163 96.7738 11.1459 96.8591 10.9952C96.9071 10.9175 96.9756 10.8546 97.057 10.8137C97.1384 10.7728 97.2295 10.7554 97.3202 10.7634L99.3104 10.8329C99.9328 10.8329 100.578 10.8329 101.231 10.8329H106.887C108.369 10.7947 109.841 11.0766 111.205 11.6597C112.19 12.0817 113.031 12.7824 113.626 13.6764C114.117 14.4334 114.383 15.315 114.394 16.2185C114.365 17.4766 113.849 18.6737 112.957 19.5565C111.896 20.6704 110.529 21.4422 109.031 21.7741C109.861 23.0979 110.706 24.4244 111.567 25.7534C112.427 27.1006 113.418 28.3585 114.525 29.5086C114.806 29.7344 115.107 29.9335 115.424 30.1035C115.76 30.2656 116.121 30.3651 116.492 30.3972L117.022 30.4821C117.191 30.4821 117.291 30.7217 117.314 31.0926C117.314 31.266 117.269 31.4363 117.184 31.5871C117.137 31.6661 117.069 31.73 116.987 31.7711C116.905 31.8122 116.814 31.8288 116.723 31.8189L115.624 31.7725H114.817H113.764C112.934 31.6319 112.146 31.3044 111.459 30.8144C110.756 30.2727 110.14 29.6266 109.63 28.8982C109.023 28.0637 108.447 27.2137 107.924 26.356C107.402 25.4984 106.887 24.6562 106.387 23.8448C106.167 23.4537 105.872 23.1098 105.519 22.8326C105.005 22.5755 104.431 22.4659 103.859 22.5158H102.968V27.9246C102.983 28.329 103.027 28.7318 103.099 29.13C103.155 29.5049 103.346 29.8459 103.637 30.0881C104.068 30.3804 104.586 30.5141 105.104 30.4667C105.291 30.463 105.477 30.4864 105.657 30.5362C105.811 30.5362 105.903 30.7912 105.926 31.1621C105.927 31.3367 105.879 31.508 105.788 31.6566C105.741 31.7357 105.673 31.7995 105.591 31.8406C105.51 31.8817 105.418 31.8983 105.327 31.8884C103.929 31.8266 102.561 31.788 101.224 31.788H99.318C98.6803 31.7493 98.0194 31.7725 97.3202 31.8189ZM102.968 21.1791H105.857C106.761 21.2187 107.663 21.0605 108.501 20.7155C109.085 20.4549 109.591 20.0446 109.968 19.5256C110.283 19.0595 110.5 18.5336 110.606 17.9802C110.7 17.5017 110.749 17.0153 110.752 16.5276C110.754 15.7948 110.591 15.0711 110.276 14.4104C109.913 13.6817 109.325 13.0907 108.601 12.726C107.56 12.2326 106.415 12.0044 105.266 12.0615C104.935 12.0168 104.598 12.0425 104.278 12.1371C103.957 12.2316 103.66 12.3927 103.406 12.6101C103.042 13.28 102.889 14.0453 102.968 14.8045V21.1791Z" fill="#3F1336"/>
<path d="M119.343 31.8189C119.257 31.8246 119.171 31.8059 119.095 31.7649C119.019 31.724 118.956 31.6623 118.913 31.5871C118.827 31.4363 118.782 31.266 118.782 31.0926C118.782 30.7217 118.897 30.5053 119.051 30.4667C119.231 30.4164 119.417 30.3929 119.604 30.3972C120.128 30.4502 120.653 30.3162 121.087 30.0185C121.368 29.7687 121.558 29.4313 121.625 29.0604C121.703 28.6634 121.742 28.2597 121.74 27.855V14.7195C121.742 14.3149 121.703 13.9111 121.625 13.5141C121.556 13.1438 121.367 12.807 121.087 12.556C120.65 12.2637 120.127 12.1301 119.604 12.1774C119.418 12.18 119.232 12.1592 119.051 12.1156C118.897 12.0692 118.805 11.8606 118.782 11.482C118.782 11.3086 118.827 11.1382 118.913 10.9875C118.956 10.9122 119.019 10.8506 119.095 10.8096C119.171 10.7686 119.257 10.7499 119.343 10.7557L121.349 10.8252C121.963 10.8252 122.593 10.8252 123.254 10.8252H133.574C133.788 10.8169 134 10.8734 134.181 10.9875C134.273 11.0632 134.344 11.1609 134.389 11.2716C134.433 11.3824 134.449 11.5025 134.435 11.6211L134.527 16.2571C134.529 16.3607 134.501 16.4626 134.446 16.5504C134.392 16.6382 134.313 16.7082 134.22 16.7517C134.043 16.8515 133.846 16.9071 133.643 16.9139C133.414 16.9186 133.188 16.8683 132.982 16.7671C132.892 16.725 132.813 16.6627 132.75 16.585C132.688 16.5074 132.644 16.4164 132.621 16.319C132.51 15.5066 132.33 14.7053 132.083 13.9237C131.928 13.3937 131.604 12.9296 131.161 12.6024C130.628 12.2907 130.018 12.1355 129.402 12.1542H124.999V20.5841H130.946C131.026 20.5903 131.104 20.618 131.17 20.6641C131.236 20.7103 131.289 20.7734 131.323 20.8468C131.4 21.0002 131.439 21.1697 131.438 21.3414C131.437 21.4981 131.398 21.6521 131.323 21.7895C131.287 21.8582 131.233 21.9151 131.166 21.9535C131.099 21.9919 131.023 22.0101 130.946 22.0059H124.999V28.2491C125.023 28.5657 125.067 28.8805 125.129 29.1918C125.2 29.5476 125.407 29.8611 125.706 30.0649C126.184 30.3503 126.744 30.4672 127.296 30.3972H130.324C130.932 30.4128 131.535 30.283 132.083 30.0185C132.522 29.7399 132.86 29.3287 133.052 28.8441C133.352 28.1 133.608 27.3389 133.82 26.5647C133.857 26.4633 133.916 26.3716 133.993 26.2966C134.07 26.2216 134.164 26.1653 134.266 26.132C134.488 26.0773 134.72 26.0773 134.942 26.132C135.137 26.1637 135.322 26.2433 135.48 26.3638C135.567 26.4185 135.637 26.4968 135.682 26.5897C135.727 26.6827 135.745 26.7865 135.733 26.8892L135.073 31.0539C135.003 31.363 134.903 31.5562 134.757 31.6334C134.557 31.7229 134.338 31.7626 134.12 31.7493H123.285H121.364C120.742 31.7493 120.065 31.7725 119.343 31.8189Z" fill="#3F1336"/>
<path d="M138.938 31.8189C138.847 31.8288 138.755 31.8122 138.673 31.7711C138.592 31.73 138.523 31.6661 138.477 31.5871C138.388 31.4378 138.343 31.2665 138.346 31.0926C138.346 30.7217 138.454 30.5053 138.607 30.4667C138.787 30.4169 138.974 30.3935 139.161 30.3972C139.679 30.452 140.2 30.3176 140.628 30.0185C140.9 29.766 141.079 29.4283 141.135 29.0604C141.204 28.6624 141.238 28.259 141.235 27.855L141.297 14.7195C141.297 13.6919 141.128 13.0273 140.774 12.7415C140.275 12.3925 139.701 12.165 139.099 12.077C138.873 12.0426 138.651 11.983 138.438 11.8992C138.331 11.8426 138.277 11.6494 138.277 11.3197C138.277 10.9411 138.407 10.7402 138.669 10.7093C138.974 10.6695 139.283 10.6514 139.591 10.6552C140.591 10.6304 141.59 10.7316 142.565 10.9566C143.308 11.1419 143.996 11.505 144.57 12.0151C145.278 12.6579 145.912 13.3784 146.46 14.1632L155.466 26.0624H155.566L155.497 14.7195C155.498 14.3159 155.467 13.9128 155.405 13.5141C155.344 13.1461 155.163 12.8089 154.89 12.556C154.463 12.26 153.946 12.1259 153.43 12.1774C153.241 12.18 153.053 12.1592 152.869 12.1156C152.715 12.0692 152.616 11.8606 152.577 11.482C152.576 11.3062 152.626 11.134 152.723 10.9875C152.77 10.9122 152.836 10.8509 152.914 10.8101C152.993 10.7693 153.081 10.7505 153.169 10.7557L154.337 10.8098L155.22 10.8175H156.319H157.41H158.294L159.431 10.7634C159.521 10.755 159.611 10.7724 159.691 10.8134C159.772 10.8544 159.839 10.9174 159.885 10.9952C159.974 11.1445 160.019 11.3158 160.015 11.4897C160.015 11.8683 159.915 12.077 159.769 12.1233C159.583 12.1687 159.392 12.1894 159.201 12.1851C158.688 12.1387 158.175 12.2725 157.749 12.5637C157.47 12.811 157.29 13.1513 157.241 13.5219C157.185 13.9082 157.147 14.31 157.126 14.7272L157.057 31.3862C157.05 31.4698 157.017 31.549 156.961 31.6118C156.906 31.6745 156.831 31.7174 156.75 31.7339C156.585 31.7854 156.415 31.814 156.242 31.8189C156.06 31.832 155.878 31.7993 155.712 31.7238C155.545 31.6482 155.4 31.5322 155.29 31.3862L142.88 14.7272H142.78L142.849 27.8628C142.864 28.2661 142.9 28.6685 142.956 29.0681C143.007 29.4398 143.19 29.7803 143.471 30.0263C143.893 30.3199 144.405 30.454 144.916 30.4049C145.115 30.4 145.315 30.4234 145.508 30.4744C145.661 30.4744 145.746 30.7294 145.769 31.1003C145.77 31.2761 145.72 31.4483 145.623 31.5948C145.576 31.6701 145.51 31.7314 145.432 31.7722C145.353 31.813 145.265 31.8318 145.177 31.8266L144.009 31.7802H143.095H141.988H140.92H140.083L138.938 31.8189Z" fill="#3F1336"/>
<path d="M58.3998 43.27C58.3653 43.2739 58.3305 43.2681 58.2992 43.253C58.268 43.238 58.2416 43.2144 58.223 43.185C58.1918 43.1283 58.1759 43.0643 58.1769 42.9995C58.1769 42.8605 58.2153 42.7832 58.2768 42.7677C58.3453 42.7542 58.4158 42.7542 58.4843 42.7677C58.6791 42.7866 58.8745 42.7375 59.0376 42.6286C59.1452 42.5344 59.2182 42.4065 59.245 42.2655C59.2699 42.1174 59.2828 41.9675 59.2834 41.8173V36.8799C59.2828 36.7297 59.2699 36.5799 59.245 36.4318C59.2182 36.2908 59.1452 36.1629 59.0376 36.0686C58.8745 35.9598 58.6791 35.9107 58.4843 35.9295C58.4155 35.939 58.3457 35.939 58.2768 35.9295C58.2153 35.9295 58.1846 35.8291 58.1769 35.69C58.1759 35.6252 58.1918 35.5613 58.223 35.5046C58.2427 35.4763 58.2694 35.4537 58.3003 35.4388C58.3313 35.4239 58.3655 35.4173 58.3998 35.4196H59.1682H59.8828H61.6194C61.9986 35.4089 62.3776 35.4426 62.749 35.52C63.0056 35.5808 63.2499 35.6853 63.4713 35.8291C63.688 35.9709 63.8631 36.1683 63.9785 36.4009C64.0979 36.6408 64.161 36.9052 64.1629 37.1735C64.1713 37.5045 64.0803 37.8304 63.9016 38.1085C63.7314 38.351 63.5113 38.5539 63.2562 38.7034C63.0132 38.835 62.7551 38.9362 62.4878 39.0048V39.0434C62.8872 39.0282 63.2847 39.1076 63.6481 39.2752C63.9533 39.4283 64.217 39.6537 64.4165 39.932C64.6098 40.191 64.7173 40.5045 64.7238 40.8283C64.7547 41.2363 64.6522 41.6433 64.4318 41.9873C64.2212 42.3111 63.9332 42.5768 63.5943 42.76C63.2462 42.9425 62.8734 43.0727 62.4878 43.1463C62.1073 43.2154 61.7217 43.2516 61.3351 43.2545H59.1682L58.3998 43.27ZM60.5052 38.8271H61.0278C61.212 38.8374 61.3967 38.8374 61.581 38.8271C61.7861 38.8132 61.9868 38.7608 62.1727 38.6725C62.3659 38.5779 62.5265 38.4271 62.6338 38.2398C62.7648 37.9739 62.8257 37.6786 62.8105 37.3822C62.8274 37.0013 62.7164 36.6257 62.4954 36.3159C62.3512 36.1648 62.1743 36.0492 61.9783 35.9781C61.7824 35.9071 61.5728 35.8825 61.3659 35.9064H60.5052V38.8271ZM61.3966 42.7523C61.7403 42.7494 62.0809 42.6867 62.4032 42.5668C62.7176 42.4633 62.9882 42.2564 63.1716 41.9796C63.3678 41.6404 63.4612 41.251 63.4406 40.8592C63.4194 40.5837 63.3295 40.318 63.1793 40.0865C62.9857 39.8248 62.7178 39.6281 62.4109 39.5225C61.9702 39.3526 61.4992 39.2763 61.0278 39.2984H60.5206V41.8019C60.4896 42.0732 60.5549 42.3469 60.705 42.5746C60.908 42.7139 61.1512 42.7818 61.3966 42.7677V42.7523Z" fill="#3F1336"/>
<path d="M67.1597 43.27C67.1277 43.2719 67.0957 43.265 67.0673 43.25C67.0389 43.235 67.0151 43.2125 66.9984 43.185C66.9671 43.1283 66.9512 43.0643 66.9523 42.9995C66.9523 42.8605 66.9907 42.7832 67.0522 42.7677C67.1207 42.7542 67.1911 42.7542 67.2596 42.7677C67.4545 42.7866 67.6498 42.7375 67.8129 42.6287C67.9205 42.5344 67.9936 42.4065 68.0204 42.2655C68.0324 42.1164 68.0324 41.9665 68.0204 41.8173V36.8799C68.0324 36.7308 68.0324 36.5809 68.0204 36.4318C67.9936 36.2908 67.9205 36.1629 67.8129 36.0686C67.6498 35.9598 67.4545 35.9107 67.2596 35.9295C67.1908 35.939 67.121 35.939 67.0522 35.9295C66.9907 35.9295 66.9599 35.8291 66.9523 35.69C66.9512 35.6252 66.9671 35.5613 66.9984 35.5046C67.0162 35.4781 67.0402 35.4564 67.0684 35.4416C67.0966 35.4268 67.1279 35.4192 67.1597 35.4196H67.9281H68.6428H72.4849C72.5639 35.4151 72.6422 35.4368 72.7077 35.4814C72.7416 35.5088 72.7678 35.5446 72.784 35.5852C72.8001 35.6258 72.8056 35.6698 72.7999 35.7132V37.4517C72.7997 37.4903 72.7887 37.5281 72.7684 37.5608C72.748 37.5936 72.719 37.62 72.6847 37.6372C72.6183 37.6734 72.5449 37.6945 72.4695 37.699C72.3836 37.6996 72.299 37.6784 72.2236 37.6372C72.1889 37.6238 72.1581 37.602 72.134 37.5737C72.1098 37.5453 72.0931 37.5114 72.0853 37.4749C72.0447 37.1683 71.9779 36.8658 71.8855 36.5709C71.8205 36.3757 71.7003 36.2039 71.5397 36.0763C71.338 35.9635 71.1097 35.9074 70.8789 35.9141H69.2806V39.0589H71.509C71.5402 39.0604 71.5703 39.0706 71.5961 39.0884C71.6219 39.1061 71.6422 39.1307 71.655 39.1593C71.6674 39.2205 71.6674 39.2836 71.655 39.3448C71.6656 39.4009 71.6656 39.4586 71.655 39.5148C71.6405 39.5403 71.619 39.5611 71.5932 39.5748C71.5673 39.5884 71.5381 39.5944 71.509 39.592H69.2806V41.9101C69.2898 42.0293 69.3052 42.1479 69.3267 42.2655C69.3577 42.396 69.434 42.511 69.5418 42.59C69.7231 42.6953 69.9334 42.7387 70.1412 42.7136H71.2785C71.5064 42.719 71.7326 42.6714 71.9393 42.5746C72.1031 42.47 72.2296 42.3158 72.3004 42.1341C72.4146 41.8543 72.5121 41.5679 72.5924 41.2765C72.6081 41.2401 72.6312 41.2075 72.6604 41.1808C72.6895 41.1542 72.724 41.1341 72.7615 41.1219C72.8444 41.0985 72.9322 41.0985 73.0151 41.1219C73.0872 41.1347 73.1555 41.1638 73.2149 41.2069C73.2474 41.2283 73.2733 41.2585 73.2896 41.2941C73.3059 41.3296 73.312 41.369 73.3071 41.4078L73.0612 42.9532C73.0581 42.9954 73.0463 43.0364 73.0264 43.0737C73.0066 43.111 72.9792 43.1436 72.9459 43.1695C72.8717 43.2051 72.7897 43.221 72.7077 43.2159H67.9205L67.1597 43.27Z" fill="#3F1336"/>
<path d="M75.0514 43.27C75.0169 43.2749 74.9817 43.2695 74.9502 43.2543C74.9188 43.2392 74.8925 43.2151 74.8747 43.185C74.8434 43.1283 74.8275 43.0643 74.8286 42.9995C74.8286 42.8604 74.8593 42.7832 74.9208 42.7677C74.9919 42.7548 75.0648 42.7548 75.1359 42.7677C75.3122 42.7801 75.4877 42.734 75.6354 42.6364C75.7541 42.5363 75.8509 42.4127 75.9197 42.2732C75.9889 42.1264 76.0503 41.9719 76.1195 41.8173L78.2788 36.6867C78.3164 36.6177 78.3399 36.5418 78.3478 36.4635C78.3558 36.3852 78.348 36.3061 78.3249 36.2309C78.3009 36.1797 78.2667 36.134 78.2244 36.0968C78.1821 36.0596 78.1326 36.0316 78.079 36.0145C77.9551 35.9648 77.8263 35.9286 77.6948 35.9063C77.6102 35.8938 77.5275 35.8705 77.4489 35.8368C77.4104 35.8368 77.3874 35.7441 77.3874 35.6204C77.3874 35.4968 77.4412 35.4041 77.5334 35.3886H77.8792C78.1718 35.3817 78.464 35.4155 78.7475 35.4891C78.984 35.554 79.1972 35.6854 79.3622 35.8677C79.569 36.1153 79.7303 36.3978 79.8386 36.7022L81.9134 41.8328C81.9672 41.9719 82.0286 42.1187 82.0978 42.2655C82.1558 42.4052 82.2453 42.5295 82.3591 42.6286C82.48 42.7294 82.6323 42.7841 82.7894 42.7832C82.8604 42.7696 82.9334 42.7696 83.0045 42.7832C83.0609 42.7832 83.0916 42.8604 83.0967 43.015C83.0962 43.0818 83.0747 43.1467 83.0353 43.2004C83.0192 43.2286 82.9955 43.2516 82.9669 43.2666C82.9383 43.2817 82.906 43.2882 82.8739 43.2854H82.1823H81.5138C81.0297 43.2854 80.5225 43.2854 79.977 43.2854C79.9424 43.2904 79.9073 43.2849 79.8758 43.2698C79.8444 43.2547 79.8181 43.2305 79.8002 43.2004C79.769 43.1437 79.7531 43.0798 79.7541 43.015C79.7541 42.8759 79.7541 42.7986 79.854 42.7832C79.9225 42.7696 79.993 42.7696 80.0615 42.7832C80.4611 42.7832 80.6839 42.7136 80.7223 42.5668C80.7414 42.3157 80.6992 42.0637 80.5994 41.8328L80.1844 40.8051H77.1108L76.8418 41.4851L76.7419 41.7555C76.7488 41.7808 76.7488 41.8075 76.7419 41.8328C76.6695 42.0346 76.623 42.245 76.6036 42.4587C76.5969 42.5199 76.614 42.5813 76.6512 42.6302C76.6884 42.6792 76.7429 42.7118 76.8034 42.7214C77.0272 42.7749 77.2575 42.7957 77.4873 42.7832C77.5584 42.7696 77.6314 42.7696 77.7024 42.7832C77.7537 42.7832 77.7844 42.8604 77.7946 43.015C77.7941 43.0818 77.7726 43.1467 77.7332 43.2004C77.7189 43.2202 77.7005 43.2367 77.6793 43.2487C77.658 43.2607 77.6345 43.268 77.6102 43.27H76.9263H75.8505H75.5124H75.0514ZM77.3566 40.2256H79.9462L78.7321 37.0885L77.3566 40.2256Z" fill="#3F1336"/>
<path d="M88.2451 43.5018C87.6747 43.5202 87.1082 43.401 86.593 43.1541C86.1845 42.9533 85.8388 42.6432 85.5941 42.2578C85.388 41.9102 85.2841 41.511 85.2944 41.1065V36.8799C85.2951 36.7293 85.2796 36.5791 85.2483 36.4318C85.2279 36.2903 85.1568 36.1612 85.0485 36.0686C84.8854 35.9598 84.6901 35.9107 84.4952 35.9295C84.4264 35.939 84.3566 35.939 84.2878 35.9295C84.2263 35.9295 84.1956 35.8291 84.1879 35.69C84.1869 35.6252 84.2028 35.5613 84.234 35.5046C84.2532 35.4758 84.2797 35.4527 84.3108 35.4377C84.3419 35.4228 84.3764 35.4165 84.4107 35.4196H85.1791H85.8938C86.3932 35.4196 86.9081 35.4196 87.4306 35.4196C87.4648 35.4173 87.4991 35.4239 87.53 35.4388C87.561 35.4537 87.5876 35.4763 87.6073 35.5046C87.6386 35.5613 87.6545 35.6252 87.6534 35.69C87.6534 35.8136 87.6534 35.8909 87.5766 35.9141C87.5213 35.9292 87.4629 35.9292 87.4076 35.9141C87.1991 35.8951 86.9899 35.941 86.8082 36.0454C86.7518 36.0851 86.7038 36.1355 86.6669 36.1939C86.63 36.2522 86.6049 36.3173 86.593 36.3854C86.5689 36.5441 86.5536 36.7041 86.5469 36.8645V40.7279C86.5483 40.9537 86.5714 41.1788 86.6161 41.4001C86.6573 41.6348 86.7462 41.8584 86.8773 42.0569C87.026 42.2699 87.2273 42.4403 87.4613 42.5514C87.7905 42.6951 88.1479 42.7612 88.5064 42.7446C88.9513 42.7701 89.3947 42.674 89.7896 42.4664C90.0679 42.3066 90.2865 42.0597 90.4121 41.7633C90.5279 41.4896 90.588 41.1953 90.5888 40.8979V37.6603C90.596 37.2653 90.5755 36.8703 90.5273 36.4781C90.5224 36.386 90.4954 36.2964 90.4486 36.217C90.4017 36.1376 90.3365 36.0708 90.2584 36.0223C90.0595 35.9485 89.8476 35.9169 89.636 35.9295C89.5671 35.9384 89.4974 35.9384 89.4285 35.9295C89.3747 35.9295 89.3363 35.8291 89.3286 35.69C89.3264 35.624 89.3452 35.559 89.3824 35.5046C89.3997 35.4758 89.4247 35.4525 89.4547 35.4374C89.4846 35.4224 89.5182 35.4162 89.5514 35.4196H90.2507H90.9346H91.6108H92.3101C92.3443 35.4173 92.3785 35.4239 92.4095 35.4388C92.4405 35.4537 92.4671 35.4763 92.4868 35.5046C92.518 35.5613 92.5339 35.6252 92.5329 35.69C92.5329 35.8136 92.5329 35.8909 92.4637 35.9141C92.4057 35.9282 92.3451 35.9282 92.287 35.9141C92.1082 35.8955 91.9279 35.8955 91.7491 35.9141C91.688 35.9224 91.6293 35.9431 91.5764 35.975C91.5236 36.0068 91.4778 36.0492 91.4417 36.0995C91.3586 36.2511 91.3138 36.4209 91.3111 36.594C91.3111 36.8258 91.3111 37.1349 91.3111 37.5367V40.9906C91.3234 41.386 91.2249 41.7769 91.0268 42.1187C90.8486 42.4289 90.6014 42.6934 90.3045 42.8914C90.0057 43.0828 89.679 43.2262 89.3363 43.3163C88.9834 43.4308 88.6158 43.4932 88.2451 43.5018Z" fill="#3F1336"/>
<path d="M96.1291 43.27C96.0957 43.2743 96.0618 43.2686 96.0316 43.2534C96.0015 43.2383 95.9766 43.2145 95.96 43.185C95.9288 43.1283 95.9129 43.0643 95.9139 42.9995C95.9139 42.8604 95.9447 42.7832 96.0061 42.7677C96.0773 42.7548 96.1502 42.7548 96.2213 42.7677C96.4161 42.7866 96.6115 42.7375 96.7746 42.6286C96.8829 42.5361 96.9539 42.4069 96.9743 42.2655C97.0056 42.1182 97.0211 41.9679 97.0205 41.8173V35.8909H96.1675C95.9375 35.8871 95.7111 35.9487 95.5144 36.0686C95.3485 36.201 95.2277 36.3819 95.1686 36.5863C95.0838 36.8854 95.0196 37.1901 94.9765 37.4981C94.9765 37.5753 94.915 37.6294 94.8228 37.668C94.7347 37.7031 94.6409 37.7214 94.5461 37.7221C94.4773 37.7222 94.4101 37.7006 94.354 37.6603C94.3205 37.6428 94.2926 37.6161 94.2736 37.5833C94.2545 37.5504 94.2451 37.5129 94.2465 37.4749V35.7286C94.24 35.6845 94.2459 35.6394 94.2635 35.5984C94.2812 35.5574 94.3099 35.5223 94.3464 35.4968C94.4143 35.4511 94.4954 35.4294 94.5769 35.435H100.663C100.744 35.4294 100.825 35.4511 100.893 35.4968C100.927 35.5243 100.953 35.56 100.97 35.6006C100.986 35.6412 100.991 35.6853 100.985 35.7286L101.039 37.4749C101.041 37.5129 101.031 37.5504 101.012 37.5833C100.993 37.6161 100.965 37.6428 100.932 37.6603C100.87 37.7018 100.798 37.7233 100.724 37.7221C100.637 37.722 100.551 37.7035 100.471 37.668C100.431 37.656 100.396 37.6341 100.368 37.6043C100.34 37.5745 100.319 37.5379 100.309 37.4981C100.266 37.1888 100.196 36.8838 100.102 36.5863C100.043 36.3819 99.9218 36.201 99.756 36.0686C99.5607 35.9454 99.3333 35.8836 99.1029 35.8909H98.2653V41.8019C98.2722 41.952 98.2876 42.1016 98.3114 42.25C98.3316 42.3934 98.4059 42.5234 98.5189 42.6132C98.6796 42.7209 98.8721 42.7699 99.0644 42.7523C99.1329 42.7387 99.2034 42.7387 99.2719 42.7523C99.3334 42.7523 99.3641 42.845 99.3718 42.9841C99.3728 43.0489 99.3569 43.1128 99.3257 43.1695C99.3079 43.2059 99.2787 43.2355 99.2427 43.2536C99.2066 43.2718 99.1656 43.2775 99.1259 43.27H98.3575H97.6506C97.1818 43.27 96.667 43.27 96.1291 43.27Z" fill="#3F1336"/>
<path d="M104.897 43.27C104.862 43.2749 104.827 43.2695 104.796 43.2543C104.764 43.2392 104.738 43.2151 104.72 43.185C104.689 43.1283 104.673 43.0643 104.674 42.9995C104.674 42.8604 104.712 42.7832 104.774 42.7677C104.842 42.7542 104.913 42.7542 104.981 42.7677C105.176 42.7866 105.371 42.7375 105.535 42.6286C105.643 42.5361 105.714 42.407 105.734 42.2655C105.766 42.1182 105.781 41.9679 105.78 41.8173V40.272C105.753 40.1333 105.709 39.9984 105.65 39.8702C105.565 39.6616 105.458 39.4143 105.319 39.0975L104.897 38.2321L104.482 37.4594L104.182 36.8954C104.048 36.6271 103.853 36.3941 103.613 36.2154C103.397 36.0769 103.158 35.9799 102.907 35.9295L102.668 35.8677C102.622 35.8677 102.599 35.775 102.599 35.6436C102.599 35.5123 102.653 35.4273 102.753 35.4118C102.868 35.4031 102.984 35.4031 103.099 35.4118C103.582 35.3894 104.064 35.4821 104.505 35.6823C104.918 35.9134 105.251 36.2668 105.458 36.6945C105.696 37.1426 105.911 37.5753 106.111 38.0003C106.311 38.4253 106.518 38.8502 106.756 39.2907L108.124 36.5708C108.262 36.2927 108.278 36.1227 108.17 36.0609C107.983 35.9849 107.78 35.9531 107.579 35.9682C107.51 35.9776 107.44 35.9776 107.371 35.9682C107.31 35.9682 107.279 35.8677 107.271 35.7286C107.27 35.6638 107.286 35.5999 107.317 35.5432C107.335 35.5167 107.359 35.4951 107.387 35.4802C107.415 35.4654 107.447 35.4578 107.479 35.4582H108.163H108.823H109.43H110.068C110.101 35.4548 110.135 35.461 110.165 35.4761C110.195 35.4911 110.22 35.5144 110.237 35.5432C110.274 35.5976 110.293 35.6626 110.291 35.7286C110.291 35.8677 110.253 35.945 110.199 35.9682C110.127 35.9775 110.055 35.9775 109.984 35.9682C109.713 35.9577 109.446 36.0276 109.215 36.1691C108.993 36.3407 108.812 36.5598 108.685 36.8104L107.333 39.4066L107.148 39.8084C107.101 39.915 107.065 40.0264 107.041 40.1406C107.009 40.2905 106.997 40.4435 107.002 40.5965V41.8019C107.009 41.952 107.025 42.1016 107.048 42.25C107.069 42.3934 107.143 42.5234 107.256 42.6132C107.417 42.7209 107.609 42.7699 107.801 42.7523C107.872 42.7381 107.946 42.7381 108.017 42.7523C108.068 42.7523 108.098 42.8295 108.109 42.9841C108.11 43.0489 108.094 43.1128 108.063 43.1695C108.047 43.1977 108.023 43.2207 107.994 43.2357C107.966 43.2508 107.933 43.2573 107.901 43.2545H107.133H106.411C105.934 43.27 105.427 43.27 104.897 43.27Z" fill="#3F1336"/>
<path d="M118.682 43.5018C117.997 43.5427 117.314 43.3844 116.715 43.0459C116.495 42.9058 116.316 42.7099 116.196 42.4778C116.076 42.2458 116.019 41.9859 116.031 41.7246C116.022 41.5816 116.044 41.4384 116.096 41.3049C116.148 41.1714 116.228 41.0509 116.331 40.9519C116.54 40.7592 116.816 40.6565 117.099 40.666C117.18 40.661 117.261 40.6721 117.337 40.6986C117.414 40.7252 117.484 40.7666 117.545 40.8206C117.611 40.879 117.657 40.9577 117.676 41.0447C117.676 41.0447 117.637 41.091 117.568 41.1296C117.454 41.1878 117.362 41.28 117.302 41.3935C117.243 41.507 117.22 41.6362 117.238 41.7632C117.228 41.927 117.253 42.0909 117.312 42.244C117.37 42.3972 117.46 42.5362 117.576 42.6518C117.888 42.8948 118.281 43.0106 118.674 42.9763C118.989 42.9876 119.301 42.9184 119.581 42.7755C119.817 42.6529 120.016 42.4687 120.158 42.2423C120.302 42.0062 120.371 41.7305 120.353 41.4536C120.335 41.1767 120.232 40.9122 120.058 40.6969C119.839 40.4577 119.579 40.2612 119.289 40.1174C118.966 39.9629 118.636 39.8006 118.283 39.6538C117.936 39.5098 117.6 39.342 117.276 39.1516C116.975 38.9651 116.714 38.7209 116.508 38.433C116.297 38.1179 116.187 37.746 116.192 37.3667C116.163 36.9171 116.279 36.4699 116.523 36.0918C116.764 35.7605 117.099 35.5101 117.483 35.3732C117.922 35.2144 118.385 35.1359 118.851 35.1414C119.221 35.1417 119.588 35.1963 119.942 35.3037C120.272 35.3981 120.575 35.5703 120.826 35.8059C120.945 35.9231 121.038 36.0642 121.099 36.22C121.16 36.3758 121.187 36.5427 121.18 36.7099C121.183 36.8465 121.158 36.9824 121.107 37.1088C121.055 37.2352 120.978 37.3493 120.88 37.444C120.672 37.6395 120.396 37.745 120.111 37.7376C119.945 37.7377 119.784 37.6773 119.658 37.5676C119.595 37.5108 119.552 37.4348 119.535 37.3513C119.535 37.3513 119.581 37.2972 119.681 37.2585C119.793 37.2153 119.893 37.1465 119.973 37.0576C120.027 37.0019 120.069 36.9351 120.096 36.8618C120.122 36.7885 120.133 36.7104 120.127 36.6327C120.133 36.4907 120.103 36.3495 120.04 36.2224C119.977 36.0952 119.882 35.9865 119.766 35.9063C119.505 35.7294 119.196 35.6401 118.882 35.6514C118.672 35.6336 118.461 35.6579 118.26 35.7228C118.06 35.7878 117.874 35.8922 117.714 36.03C117.487 36.2543 117.357 36.5598 117.353 36.8799C117.341 37.0187 117.356 37.1584 117.399 37.2911C117.441 37.4237 117.509 37.5466 117.599 37.6526C117.817 37.8858 118.078 38.0746 118.367 38.2089C118.736 38.4098 119.136 38.5953 119.489 38.7653C119.853 38.9267 120.205 39.1153 120.542 39.3293C120.851 39.527 121.114 39.7908 121.31 40.102C121.521 40.4644 121.622 40.8804 121.602 41.2996C121.608 41.709 121.472 42.1077 121.218 42.4277C120.937 42.7663 120.578 43.0314 120.173 43.2004C119.703 43.405 119.195 43.5077 118.682 43.5018Z" fill="#3F1336"/>
<path d="M123.439 43.27C123.405 43.2743 123.371 43.2686 123.341 43.2535C123.311 43.2383 123.286 43.2145 123.27 43.185C123.232 43.1305 123.214 43.0655 123.216 42.9995C123.216 42.8605 123.262 42.7832 123.316 42.7677C123.384 42.7554 123.455 42.7554 123.523 42.7677C123.702 42.7785 123.879 42.7326 124.03 42.6364C124.149 42.5381 124.244 42.4139 124.307 42.2732L124.514 41.8173L126.666 36.6868C126.705 36.6181 126.729 36.5425 126.738 36.4642C126.748 36.386 126.741 36.3067 126.72 36.2309C126.695 36.1802 126.661 36.135 126.619 36.0978C126.576 36.0607 126.527 36.0324 126.474 36.0145C126.35 35.9648 126.221 35.9286 126.09 35.9064C126.005 35.8951 125.922 35.8716 125.844 35.8368C125.805 35.8368 125.782 35.7441 125.782 35.6205C125.782 35.4968 125.828 35.4041 125.928 35.3887H126.274C126.564 35.3816 126.854 35.4154 127.135 35.4891C127.372 35.552 127.586 35.6837 127.75 35.8677C127.962 36.1128 128.126 36.3959 128.234 36.7022L130.301 41.8328C130.362 41.9719 130.424 42.1187 130.493 42.2655C130.551 42.4052 130.64 42.5295 130.754 42.6287C130.872 42.7294 131.022 42.7843 131.177 42.7832C131.248 42.769 131.321 42.769 131.392 42.7832C131.443 42.7832 131.474 42.8605 131.484 43.015C131.486 43.081 131.467 43.146 131.43 43.2004C131.414 43.228 131.39 43.2505 131.361 43.2654C131.333 43.2804 131.301 43.2873 131.269 43.2854H130.577H129.909C129.425 43.2854 128.918 43.2854 128.372 43.2854C128.339 43.2898 128.305 43.2841 128.274 43.2689C128.244 43.2538 128.219 43.2299 128.203 43.2004C128.169 43.1445 128.15 43.0805 128.149 43.015C128.149 42.8759 128.195 42.7986 128.249 42.7832C128.318 42.7709 128.388 42.7709 128.456 42.7832C128.864 42.7832 129.087 42.7136 129.117 42.5668C129.143 42.3162 129.103 42.0632 129.002 41.8328L128.587 40.8051H125.513C125.39 41.1142 125.306 41.346 125.252 41.4851L125.152 41.7555C125.159 41.7808 125.159 41.8075 125.152 41.8328C125.076 42.0335 125.03 42.2444 125.014 42.4587C125.007 42.5188 125.023 42.5792 125.059 42.628C125.094 42.6767 125.147 42.7101 125.206 42.7214C125.43 42.7739 125.66 42.7947 125.89 42.7832C125.961 42.769 126.034 42.769 126.105 42.7832C126.156 42.7832 126.187 42.8605 126.197 43.015C126.2 43.081 126.181 43.146 126.144 43.2004C126.129 43.2199 126.11 43.2361 126.089 43.2481C126.068 43.26 126.045 43.2675 126.021 43.27H125.337H124.261H123.923H123.439ZM125.782 40.2256H128.372L127.127 37.0885H127.089L125.782 40.2256Z" fill="#3F1336"/>
<path d="M132.89 43.27C132.858 43.2719 132.826 43.265 132.798 43.25C132.769 43.235 132.746 43.2125 132.729 43.185C132.698 43.1283 132.682 43.0643 132.683 42.9995C132.683 42.8604 132.721 42.7832 132.783 42.7677C132.851 42.7542 132.922 42.7542 132.99 42.7677C133.185 42.7866 133.38 42.7375 133.543 42.6286C133.651 42.5343 133.724 42.4065 133.751 42.2655C133.776 42.1174 133.789 41.9675 133.789 41.8173V36.8799C133.789 36.7297 133.776 36.5798 133.751 36.4318C133.724 36.2908 133.651 36.1629 133.543 36.0686C133.38 35.9598 133.185 35.9107 132.99 35.9295C132.921 35.9389 132.851 35.9389 132.783 35.9295C132.721 35.9295 132.69 35.8291 132.683 35.69C132.682 35.6252 132.698 35.5612 132.729 35.5045C132.747 35.4781 132.771 35.4564 132.799 35.4416C132.827 35.4268 132.858 35.4192 132.89 35.4195H133.659H134.373C134.873 35.4195 135.388 35.4195 135.91 35.4195C135.943 35.4171 135.976 35.4237 136.006 35.4386C136.036 35.4536 136.061 35.4764 136.079 35.5045C136.11 35.5612 136.126 35.6252 136.125 35.69C136.125 35.8291 136.125 35.9063 136.033 35.9295C135.962 35.9384 135.889 35.9384 135.818 35.9295C135.626 35.9118 135.433 35.9609 135.272 36.0686C135.162 36.1608 135.089 36.2897 135.065 36.4318C135.041 36.5802 135.026 36.7298 135.019 36.8799V41.9873C135.028 42.104 135.043 42.2201 135.065 42.335C135.097 42.4628 135.177 42.5734 135.288 42.6441C135.469 42.7404 135.676 42.7782 135.879 42.7523H136.994C137.219 42.7584 137.443 42.7107 137.647 42.6132C137.815 42.5116 137.945 42.3567 138.016 42.1728C138.1 41.9641 138.2 41.6782 138.308 41.3151C138.323 41.2787 138.346 41.2461 138.375 41.2194C138.405 41.1928 138.439 41.1727 138.477 41.1605C138.56 41.1371 138.647 41.1371 138.73 41.1605C138.802 41.1733 138.871 41.2024 138.93 41.2455C138.963 41.267 138.988 41.2972 139.005 41.3327C139.021 41.3682 139.027 41.4076 139.022 41.4464L138.776 42.9918C138.773 43.034 138.761 43.075 138.742 43.1123C138.722 43.1496 138.694 43.1822 138.661 43.2081C138.587 43.2437 138.505 43.2596 138.423 43.2545H133.659L132.89 43.27Z" fill="#3F1336"/>
<path d="M144.931 43.5018C144.134 43.511 143.353 43.2705 142.698 42.8136C142.043 42.3567 141.545 41.7061 141.274 40.9519C141.089 40.4583 140.997 39.9341 141.005 39.4066C140.993 38.7812 141.111 38.1602 141.35 37.583C141.773 36.5993 142.566 35.8241 143.556 35.4273C143.992 35.2454 144.459 35.1483 144.931 35.1414C145.502 35.1337 146.069 35.2496 146.591 35.4814C147.064 35.6958 147.49 36.0032 147.844 36.3854C148.178 36.7632 148.439 37.2009 148.612 37.6758C148.793 38.1571 148.884 38.6679 148.881 39.1825C148.895 39.8088 148.774 40.4307 148.528 41.006C148.307 41.5139 147.982 41.9694 147.575 42.3427C147.199 42.6945 146.765 42.977 146.291 43.1772C145.862 43.3705 145.401 43.4806 144.931 43.5018ZM144.931 42.9532C145.459 42.9745 145.974 42.7888 146.368 42.4355C146.755 42.0569 147.036 41.5825 147.183 41.0601C147.366 40.4646 147.456 39.8444 147.452 39.2211C147.458 38.6345 147.362 38.0512 147.167 37.4981C147.008 37.0023 146.722 36.5573 146.338 36.2077C145.947 35.8722 145.445 35.6958 144.931 35.7132C144.413 35.6951 143.909 35.8808 143.525 36.2309C143.154 36.605 142.889 37.0717 142.757 37.583C142.576 38.1737 142.488 38.7888 142.495 39.4066C142.492 39.9994 142.583 40.5889 142.764 41.1528C142.894 41.6613 143.157 42.1256 143.525 42.4973C143.915 42.8192 144.412 42.9819 144.916 42.9532H144.931Z" fill="#3F1336"/>
<path d="M151.325 43.27C151.291 43.2743 151.257 43.2686 151.227 43.2534C151.197 43.2383 151.172 43.2145 151.156 43.185C151.122 43.129 151.103 43.065 151.102 42.9995C151.102 42.8605 151.148 42.7832 151.202 42.7677C151.273 42.7548 151.346 42.7548 151.417 42.7677C151.609 42.788 151.803 42.7387 151.962 42.6286C152.066 42.5332 152.134 42.405 152.154 42.2655C152.179 42.1174 152.192 41.9675 152.193 41.8173V36.8954C152.216 36.7597 152.21 36.6207 152.175 36.4875C152.141 36.3543 152.079 36.23 151.993 36.1227C151.807 35.9894 151.59 35.9045 151.363 35.8754C151.278 35.8629 151.196 35.8396 151.117 35.8059C151.079 35.8059 151.056 35.7132 151.056 35.5895C151.056 35.4659 151.109 35.3732 151.209 35.3577H151.547C151.924 35.3502 152.301 35.3865 152.669 35.4659C152.953 35.5369 153.217 35.6746 153.438 35.8677C153.703 36.0983 153.943 36.3574 154.152 36.6404L157.526 41.1297H157.564V36.8799C157.563 36.7297 157.551 36.5799 157.526 36.4318C157.505 36.2922 157.437 36.1641 157.334 36.0686C157.174 35.9585 156.981 35.9092 156.788 35.9295C156.717 35.9384 156.644 35.9384 156.573 35.9295C156.519 35.9295 156.481 35.8291 156.465 35.69C156.463 35.624 156.482 35.559 156.519 35.5046C156.538 35.4769 156.563 35.4546 156.592 35.4397C156.622 35.4248 156.655 35.4179 156.688 35.4196H157.126H157.457H158.294H158.617H159.039C159.074 35.4165 159.108 35.4227 159.139 35.4377C159.171 35.4527 159.197 35.4757 159.216 35.5046C159.247 35.5613 159.263 35.6252 159.262 35.69C159.262 35.8291 159.224 35.9063 159.17 35.9295C159.099 35.9397 159.026 35.9397 158.955 35.9295C158.765 35.9117 158.575 35.9609 158.417 36.0686C158.309 36.16 158.24 36.2902 158.225 36.4318C158.201 36.5802 158.186 36.7298 158.179 36.8799V43.1232C158.178 43.155 158.165 43.1855 158.144 43.2094C158.123 43.2333 158.095 43.2492 158.064 43.2545C158 43.2645 157.935 43.2645 157.871 43.2545C157.803 43.2579 157.734 43.2449 157.672 43.2167C157.609 43.1885 157.554 43.1459 157.51 43.0923L152.9 36.849H152.861V41.771C152.868 41.9211 152.884 42.0707 152.908 42.2191C152.922 42.3607 152.991 42.4909 153.1 42.5823C153.257 42.69 153.448 42.7391 153.638 42.7214C153.711 42.7074 153.787 42.7074 153.86 42.7214C153.922 42.7214 153.953 42.8141 153.96 42.9532C153.962 43.0192 153.944 43.0842 153.906 43.1386C153.901 43.1624 153.891 43.1848 153.877 43.2045C153.862 43.2241 153.844 43.2406 153.823 43.2529C153.803 43.2653 153.779 43.2731 153.755 43.2761C153.731 43.279 153.707 43.2769 153.684 43.27H153.246H152.915H152.07H151.763H151.325Z" fill="#3F1336"/>
</svg>
