<svg width="173" height="173" viewBox="0 0 173 173" fill="none" xmlns="http://www.w3.org/2000/svg">
<path d="M147.21 89.6622C147.24 89.478 147.325 89.3596 147.466 89.3069C147.607 89.2542 147.751 89.2399 147.899 89.264C148.209 89.3335 148.372 89.4357 148.388 89.5707C148.404 89.7057 148.396 89.8653 148.366 90.0495C148.27 90.639 148.304 91.0701 148.467 91.3426C148.65 91.6182 148.893 91.8092 149.197 91.9155C149.516 92.0433 149.851 92.1357 150.201 92.1928L163.383 94.3429L163.694 92.4361C163.778 91.8067 163.719 91.296 163.518 90.9038C163.336 90.5147 162.991 90.1937 162.484 89.9408C161.995 89.6908 161.347 89.4337 160.539 89.1696C160.376 89.1241 160.267 88.9833 160.21 88.7472C160.17 88.5325 160.166 88.3239 160.199 88.1212C160.22 87.9922 160.29 87.8524 160.409 87.7016C160.526 87.5692 160.676 87.5181 160.86 87.5481L164.743 88.2666C165.001 88.3086 165.164 88.4109 165.232 88.5733C165.3 88.7357 165.318 88.9182 165.284 89.1209L163.08 102.634C163.047 102.837 162.974 102.995 162.861 103.109C162.745 103.242 162.558 103.287 162.3 103.245L158.385 102.72C158.201 102.69 158.076 102.584 158.011 102.403C157.943 102.241 157.921 102.086 157.945 101.939C157.975 101.754 158.044 101.567 158.151 101.376C158.276 101.189 158.424 101.09 158.596 101.08C159.446 101.086 160.144 101.04 160.69 100.939C161.251 100.861 161.68 100.666 161.977 100.355C162.289 100.065 162.507 99.5997 162.63 98.9579L162.937 97.0788L149.755 94.9287C149.402 94.89 149.055 94.8713 148.714 94.8724C148.392 94.8766 148.101 94.9804 147.841 95.1839C147.596 95.4088 147.427 95.8067 147.334 96.3779C147.304 96.5621 147.26 96.7157 147.202 96.8386C147.144 96.9616 146.957 97.0067 146.641 96.9741C146.494 96.95 146.362 96.8907 146.245 96.7959C146.128 96.7012 146.084 96.5617 146.114 96.3775C146.247 95.794 146.367 95.2366 146.472 94.7053C146.556 94.1894 146.642 93.6644 146.729 93.1301C146.909 92.0247 147.07 90.8688 147.21 89.6622Z" fill="#CD68C0"/>
<path d="M141.233 111.552C141.834 110.391 142.636 109.514 143.638 108.919C144.631 108.341 145.692 108.039 146.819 108.014C147.947 107.988 149.008 108.233 150.002 108.749C150.98 109.256 151.76 109.881 152.342 110.624C152.924 111.367 153.325 112.154 153.547 112.983C153.76 113.83 153.823 114.661 153.736 115.478C153.649 116.295 153.434 117.035 153.09 117.698C152.489 118.858 151.691 119.727 150.698 120.305C149.696 120.9 148.631 121.21 147.503 121.236C146.376 121.261 145.315 121.016 144.321 120.501C143.343 119.994 142.567 119.36 141.994 118.601C141.412 117.858 141.015 117.063 140.801 116.216C140.58 115.387 140.512 114.563 140.599 113.746C140.687 112.929 140.898 112.198 141.233 111.552ZM142.152 112.028C141.731 112.84 141.641 113.603 141.881 114.316C142.113 115.046 142.566 115.712 143.242 116.315C143.926 116.942 144.723 117.493 145.635 117.965C146.513 118.42 147.373 118.729 148.214 118.892C149.055 119.054 149.823 119.011 150.52 118.763C151.217 118.514 151.767 118 152.17 117.221C152.591 116.409 152.686 115.638 152.455 114.908C152.24 114.187 151.794 113.525 151.119 112.923C150.459 112.329 149.666 111.791 148.738 111.31C147.876 110.864 147.02 110.546 146.172 110.359C145.314 110.188 144.529 110.222 143.816 110.462C143.119 110.711 142.565 111.233 142.152 112.028Z" fill="#CD68C0"/>
<path d="M132.063 118.175C132.156 118.082 132.281 118.049 132.44 118.076C132.572 118.102 132.684 118.162 132.776 118.254C132.961 118.465 133.027 118.624 132.974 118.729C132.895 118.835 132.796 118.947 132.677 119.066C132.321 119.422 132.143 119.732 132.143 119.996C132.116 120.26 132.195 120.511 132.38 120.749C132.565 120.986 132.77 121.217 132.994 121.442L141.587 130.034C141.824 130.272 142.055 130.477 142.28 130.648C142.504 130.846 142.742 130.939 142.993 130.925C143.257 130.925 143.573 130.741 143.943 130.371C144.062 130.252 144.187 130.153 144.319 130.074C144.451 130.021 144.616 130.094 144.814 130.292C145.012 130.49 145.025 130.714 144.854 130.965C144.339 131.664 143.969 132.219 143.745 132.628C143.507 133.05 143.342 133.374 143.25 133.598C143.144 133.836 143.032 134.027 142.913 134.172C142.821 134.291 142.715 134.357 142.597 134.37C142.465 134.397 142.319 134.331 142.161 134.172L141.211 133.222L141.151 133.281C141.125 133.994 140.973 134.727 140.696 135.479C140.419 136.231 140.042 136.845 139.567 137.32C138.762 138.126 137.851 138.64 136.835 138.865C135.819 139.089 134.776 139.023 133.707 138.667C132.651 138.324 131.654 137.683 130.717 136.746C129.767 135.796 129.153 134.747 128.876 133.598C128.599 132.45 128.605 131.335 128.896 130.252C129.199 129.183 129.74 128.259 130.519 127.48C131.113 126.886 131.661 126.471 132.162 126.233C132.638 125.995 133.086 125.824 133.509 125.718L133.588 125.639L131.192 123.243C130.968 123.019 130.737 122.814 130.499 122.63C130.262 122.445 130.011 122.366 129.747 122.392C129.47 122.405 129.16 122.583 128.816 122.927C128.698 123.045 128.592 123.138 128.5 123.204C128.381 123.27 128.216 123.21 128.005 123.026C127.912 122.933 127.853 122.821 127.826 122.689C127.787 122.544 127.82 122.418 127.925 122.313C128.335 121.956 128.711 121.62 129.054 121.303C129.371 120.986 129.707 120.65 130.064 120.293C130.42 119.937 130.757 119.6 131.074 119.284C131.377 118.954 131.707 118.584 132.063 118.175ZM131.351 127.995C130.836 128.51 130.532 129.064 130.44 129.658C130.361 130.265 130.42 130.866 130.618 131.46C130.816 132.08 131.107 132.661 131.489 133.202C131.872 133.77 132.268 134.258 132.677 134.667C133.298 135.288 133.991 135.783 134.756 136.152C135.522 136.548 136.3 136.72 137.092 136.667C137.884 136.641 138.617 136.291 139.29 135.618C139.792 135.116 140.102 134.595 140.221 134.054C140.353 133.526 140.412 132.991 140.399 132.45L135.093 127.144C134.604 126.946 134.01 126.88 133.311 126.946C132.611 127.038 131.958 127.388 131.351 127.995Z" fill="#CD68C0"/>
<path d="M112.04 141.947C112.2 141.898 112.336 141.925 112.445 142.028C112.554 142.132 112.631 142.255 112.674 142.398C112.749 142.707 112.729 142.898 112.615 142.972C112.5 143.045 112.354 143.109 112.175 143.164C111.604 143.337 111.232 143.558 111.059 143.825C110.892 144.109 110.828 144.412 110.867 144.732C110.893 145.075 110.958 145.416 111.061 145.756L114.292 156.392C114.395 156.731 114.528 157.042 114.692 157.324C114.843 157.629 115.065 157.844 115.357 157.97C115.654 158.114 116.088 158.099 116.66 157.926C116.838 157.871 116.996 157.843 117.132 157.841C117.267 157.838 117.39 157.986 117.501 158.285C117.544 158.428 117.549 158.572 117.516 158.719C117.482 158.866 117.385 158.964 117.224 159.012C116.647 159.168 116.106 159.313 115.6 159.447C115.077 159.587 114.547 159.738 114.012 159.901L106.269 162.253C106.073 162.312 105.898 162.317 105.746 162.265C105.576 162.219 105.453 162.071 105.377 161.821L104.157 158.095C104.103 157.916 104.152 157.755 104.303 157.612C104.437 157.474 104.575 157.383 104.718 157.339C104.914 157.28 105.113 157.259 105.313 157.276C105.501 157.316 105.637 157.411 105.722 157.561C106.073 158.332 106.411 158.932 106.736 159.36C107.049 159.811 107.408 160.092 107.812 160.204C108.204 160.338 108.715 160.319 109.346 160.147L112.266 159.26L110.15 152.295L105.354 153.751C105.206 153.777 105.077 153.738 104.968 153.635C104.858 153.532 104.782 153.408 104.739 153.266C104.701 153.141 104.698 153.005 104.732 152.858C104.771 152.729 104.862 152.643 105.004 152.599L109.8 151.143L108.408 146.561C108.287 146.227 108.151 145.908 108 145.603C107.854 145.315 107.633 145.1 107.335 144.956C107.026 144.835 106.594 144.859 106.04 145.027C105.862 145.082 105.704 145.11 105.568 145.112C105.433 145.115 105.31 144.967 105.2 144.668C105.156 144.525 105.151 144.381 105.185 144.234C105.218 144.087 105.324 143.987 105.503 143.932C106.662 143.639 107.778 143.329 108.849 143.004C109.385 142.841 109.912 142.681 110.43 142.523C110.942 142.348 111.479 142.156 112.04 141.947Z" fill="#CD68C0"/>
<path d="M89.2396 146.913C90.5086 146.942 91.5075 147.348 92.2362 148.13C92.9649 148.913 93.3148 149.929 93.2859 151.179L93.1659 156.358C93.1581 156.694 93.1697 157.002 93.2005 157.283C93.2123 157.582 93.3095 157.818 93.4922 157.99C93.6745 158.181 94.0269 158.282 94.5495 158.295C94.7174 158.298 94.8756 158.321 95.024 158.362C95.1534 158.421 95.2148 158.59 95.2083 158.87C95.2018 159.15 95.0486 159.314 94.7488 159.363C93.8873 159.474 93.2311 159.59 92.7802 159.71C92.3106 159.83 91.9535 159.934 91.7087 160.021C91.4639 160.109 91.248 160.16 91.061 160.174C90.9113 160.189 90.7906 160.159 90.699 160.082C90.5888 160.005 90.5363 159.854 90.5414 159.63L90.7379 151.148C90.7522 150.533 90.6332 150.026 90.381 149.628C90.1102 149.229 89.7716 148.932 89.3654 148.736C88.9592 148.54 88.5414 148.437 88.1122 148.427C87.4591 148.412 86.8873 148.51 86.3969 148.723C85.9061 148.955 85.5079 149.216 85.2024 149.508C84.8965 149.818 84.6945 150.075 84.5964 150.278L84.4603 156.156C84.4525 156.492 84.464 156.801 84.4948 157.081C84.5066 157.38 84.6038 157.616 84.7866 157.788C84.9688 157.979 85.3213 158.081 85.8438 158.093C86.0117 158.097 86.1699 158.119 86.3184 158.16C86.4477 158.219 86.5091 158.388 86.5026 158.668C86.4962 158.948 86.343 159.113 86.0431 159.162C85.1816 159.273 84.5254 159.388 84.0745 159.508C83.605 159.628 83.2478 159.732 83.003 159.82C82.7583 159.907 82.5424 159.958 82.3553 159.973C82.2056 159.988 82.0849 159.957 81.9934 159.88C81.8831 159.803 81.8306 159.652 81.8358 159.428L82.0601 149.743C82.0856 148.642 81.3612 148.074 79.887 148.04C79.6817 148.035 79.5524 147.976 79.499 147.863C79.4456 147.75 79.4204 147.628 79.4234 147.497C79.4295 147.236 79.5918 147.081 79.9103 147.033L84.4242 146.829C84.5549 146.832 84.6282 146.89 84.6443 147.002C84.6604 147.115 84.6667 147.245 84.6632 147.395L84.6269 148.962L84.6829 148.964C85.0452 148.636 85.4356 148.309 85.8539 147.982C86.2536 147.656 86.7264 147.396 87.2723 147.203C87.8001 146.991 88.4558 146.894 89.2396 146.913Z" fill="#CD68C0"/>
<path d="M74.2719 146.217C74.3972 146.254 74.4887 146.34 74.5465 146.473C74.5811 146.62 74.5798 146.756 74.5428 146.881C74.4455 147.144 74.3405 147.269 74.2279 147.255C74.092 147.254 73.9435 147.23 73.7824 147.182C73.2811 147.034 72.9172 147.014 72.6906 147.122C72.4407 147.243 72.2646 147.444 72.162 147.725C72.0415 148.001 71.9363 148.291 71.8464 148.595L67.9736 161.699C67.8784 162.021 67.809 162.322 67.7654 162.601C67.6987 162.893 67.731 163.145 67.8624 163.359C67.9885 163.591 68.3022 163.781 68.8034 163.93C68.9645 163.977 69.1114 164.04 69.244 164.118C69.3534 164.209 69.3685 164.389 69.2891 164.657C69.2098 164.926 69.0189 165.044 68.7166 165.013C67.8562 164.895 67.1926 164.835 66.7259 164.834C66.2414 164.827 65.8695 164.834 65.6103 164.854C65.3511 164.875 65.1294 164.868 64.9451 164.833C64.7966 164.809 64.6882 164.747 64.6198 164.649C64.5336 164.546 64.5222 164.387 64.5857 164.172L69.4029 147.873C69.4928 147.569 69.5712 147.271 69.6379 146.979C69.6868 146.682 69.6482 146.418 69.522 146.186C69.3727 145.966 69.0475 145.783 68.5462 145.634C68.3851 145.587 68.2562 145.529 68.1593 145.462C68.0393 145.407 68.01 145.242 68.0715 144.969C68.1085 144.843 68.1814 144.729 68.29 144.624C68.3934 144.538 68.5166 144.516 68.6599 144.559C69.1684 144.748 69.6438 144.917 70.086 145.068C70.5157 145.195 70.9722 145.33 71.4555 145.472C71.9388 145.615 72.3953 145.75 72.8249 145.877C73.2598 145.986 73.7422 146.1 74.2719 146.217Z" fill="#CD68C0"/>
<path d="M62.5957 142.699C62.711 142.76 62.7836 142.863 62.8133 143.005C62.8178 143.156 62.7893 143.289 62.7279 143.404C62.5798 143.642 62.452 143.743 62.3443 143.707C62.2114 143.679 62.0709 143.625 61.9226 143.546C61.4612 143.3 61.1087 143.208 60.865 143.268C60.596 143.337 60.3831 143.498 60.2262 143.753C60.0529 143.999 59.8917 144.262 59.7425 144.542L53.3201 156.603C53.1622 156.899 53.0339 157.18 52.9352 157.445C52.8113 157.717 52.7923 157.971 52.8781 158.207C52.9551 158.46 53.2243 158.709 53.6856 158.955C53.8339 159.034 53.9652 159.125 54.0794 159.228C54.1684 159.339 54.1471 159.518 54.0155 159.765C53.8839 160.012 53.6732 160.09 53.3832 159.999C52.5639 159.711 51.9258 159.519 51.469 159.424C50.9956 159.32 50.63 159.252 50.3719 159.22C50.1138 159.189 49.898 159.137 49.7245 159.066C49.5839 159.012 49.49 158.93 49.4427 158.821C49.3789 158.702 49.3997 158.544 49.505 158.346L57.4935 143.345C57.6427 143.065 57.7792 142.788 57.9031 142.516C58.0105 142.235 58.0257 141.968 57.9487 141.715C57.8464 141.471 57.5646 141.225 57.1033 140.98C56.955 140.901 56.8402 140.818 56.7589 140.733C56.6523 140.655 56.6566 140.488 56.7718 140.232C56.8332 140.117 56.9275 140.019 57.0549 139.939C57.1734 139.875 57.2986 139.878 57.4304 139.948C57.8907 140.236 58.3224 140.497 58.7255 140.733C59.1209 140.944 59.5411 141.168 59.9859 141.404C60.4308 141.641 60.8509 141.865 61.2463 142.076C61.6505 142.27 62.1003 142.478 62.5957 142.699Z" fill="#CD68C0"/>
<path d="M47.3016 140.631C47.4433 140.753 47.4968 140.934 47.4623 141.175C47.4136 141.404 47.3285 141.589 47.207 141.731C47.0733 141.887 46.9031 141.999 46.6966 142.068C46.4637 142.138 46.2764 142.113 46.1348 141.991L41.4808 137.999C41.3249 137.865 41.2714 137.684 41.3201 137.455C41.3566 137.24 41.4417 137.055 41.5754 136.899C41.697 136.758 41.8671 136.645 42.0858 136.562C42.3045 136.48 42.4918 136.505 42.6476 136.639L47.3016 140.631Z" fill="#CD68C0"/>
<path d="M37.5089 122.296C38.5928 123.907 39.1477 125.334 39.1738 126.576C39.1844 127.829 38.6399 128.825 37.5403 129.565C36.9828 129.94 36.4009 130.062 35.7946 129.93C35.1624 129.793 34.6431 129.422 34.2366 128.818C33.9811 128.405 33.8942 128.059 33.9759 127.779C34.0471 127.483 34.1291 127.305 34.222 127.242C34.253 127.221 34.3541 127.254 34.5253 127.342C34.6811 127.439 34.8988 127.495 35.1784 127.51C35.4425 127.534 35.7605 127.422 36.1321 127.172C36.829 126.703 37.2407 126.111 37.367 125.396C37.4779 124.691 37.2154 123.866 36.5797 122.922C36.1316 122.256 35.6273 121.774 35.0669 121.476C34.4806 121.173 33.9027 121.033 33.3333 121.056C32.7484 121.09 32.2392 121.253 31.8055 121.544C31.1551 121.982 30.7459 122.528 30.5778 123.181C30.4098 123.834 30.3819 124.561 30.4941 125.363C30.5804 126.16 30.7082 126.985 30.8775 127.839C31.0469 128.692 31.1567 129.541 31.2069 130.385C31.2467 131.213 31.1336 131.998 30.8676 132.739C30.5861 133.491 30.0479 134.146 29.253 134.703C28.2878 135.375 27.3573 135.698 26.4615 135.67C25.5502 135.654 24.6947 135.352 23.8949 134.765C23.0795 134.189 22.354 133.428 21.7183 132.484C21.2494 131.787 20.8915 131.038 20.6447 130.236C20.3875 129.419 20.3298 128.648 20.4716 127.923C20.5875 127.192 20.994 126.592 21.6909 126.123C22.2484 125.748 22.8432 125.629 23.4755 125.766C24.0818 125.898 24.5881 126.266 24.9946 126.87C25.2346 127.294 25.3267 127.648 25.271 127.933C25.1893 128.213 25.1021 128.384 25.0092 128.447C24.9627 128.478 24.846 128.421 24.659 128.277C24.4565 128.144 24.2075 128.041 23.9121 127.97C23.6012 127.909 23.2677 127.999 22.9115 128.238C22.323 128.634 22.025 129.161 22.0174 129.819C21.9944 130.487 22.207 131.154 22.6551 131.819C23.3325 132.826 24.0676 133.4 24.8603 133.542C25.6271 133.678 26.3048 133.548 26.8933 133.152C27.4663 132.767 27.8267 132.299 27.9745 131.75C28.1222 131.2 28.158 130.501 28.0819 129.653C27.9846 128.706 27.8589 127.766 27.7047 126.835C27.5351 125.914 27.4406 125.022 27.4213 124.157C27.3917 123.277 27.546 122.453 27.8844 121.686C28.2073 120.928 28.8256 120.242 29.7393 119.627C30.5291 119.096 31.4005 118.87 32.3535 118.948C33.296 119.012 34.2215 119.334 35.1301 119.915C36.0386 120.496 36.8316 121.29 37.5089 122.296Z" fill="#CD68C0"/>
<path d="M28.6623 106.02C29.0801 107.395 29.1381 108.646 28.8363 109.772C28.529 110.879 27.9548 111.815 27.1135 112.577C26.2723 113.34 25.2712 113.898 24.1102 114.251C23.3243 114.489 22.5246 114.586 21.7109 114.541C20.8739 114.483 20.0731 114.287 19.3085 113.954C18.526 113.626 17.845 113.15 17.2653 112.526C16.6856 111.902 16.2547 111.126 15.9725 110.197C15.4734 108.554 15.5276 107.191 16.1353 106.109C16.7198 105.015 17.6449 104.207 18.9108 103.686C19.5359 103.496 20.0009 103.55 20.3059 103.847C20.6055 104.127 20.8394 104.544 21.0076 105.097L22.9853 111.608C24.0213 111.293 24.9066 110.868 25.6414 110.332C26.3583 109.802 26.8656 109.161 27.1634 108.407C27.4379 107.641 27.4204 106.749 27.1112 105.73C26.8833 104.98 26.5272 104.386 26.0429 103.948C25.5587 103.51 24.8387 103.163 23.883 102.907C23.661 102.818 23.5924 102.625 23.6772 102.326C23.7052 102.161 23.7942 102.036 23.9441 101.952C24.0761 101.873 24.2066 101.853 24.3354 101.892C25.3788 102.179 26.2781 102.667 27.0332 103.355C27.7883 104.042 28.3313 104.931 28.6623 106.02ZM21.9673 111.917L20.6406 107.55C20.5104 107.121 20.3269 106.806 20.0902 106.605C19.8302 106.391 19.4921 106.338 19.0759 106.445C18.3079 106.678 17.6943 107.099 17.2351 107.707C16.7527 108.302 16.6444 109.037 16.9102 109.912C17.1815 110.805 17.7666 111.447 18.6655 111.837C19.559 112.209 20.6596 112.236 21.9673 111.917Z" fill="#CD68C0"/>
<path d="M25.362 95.4578C25.3655 95.5884 25.3125 95.7019 25.2031 95.7982C25.0745 95.8764 24.9449 95.9173 24.8143 95.9208C24.5334 95.891 24.3821 95.8204 24.3604 95.709C24.32 95.598 24.2973 95.4492 24.2923 95.2626C24.2782 94.7402 24.1846 94.3879 24.0116 94.2058C23.82 94.0243 23.5746 93.9282 23.2756 93.9176C22.976 93.8884 22.6676 93.878 22.3504 93.8866L15.9407 94.0598C15.6049 94.0689 15.2975 94.0959 15.0186 94.1408C14.7205 94.1675 14.4901 94.2764 14.3272 94.4676C14.1456 94.6592 14.0619 95.0163 14.076 95.5387C14.0806 95.7067 14.0662 95.8658 14.0329 96.0161C13.9805 96.1482 13.8143 96.2181 13.5344 96.2256C13.2545 96.2332 13.0825 96.0884 13.0185 95.7914C12.8646 94.9366 12.7164 94.287 12.5737 93.8427C12.4304 93.3797 12.3091 93.0376 12.2098 92.8162C12.1099 92.5761 12.0482 92.363 12.0245 92.1769C12.0018 92.0282 12.0265 91.9061 12.0986 91.8108C12.1702 91.6968 12.318 91.6368 12.5419 91.6308L14.2773 91.5839L14.275 91.4999C13.6421 90.8821 13.1206 90.2426 12.7106 89.5814C12.2819 88.9208 12.06 88.3106 12.0449 87.7508C12.0272 87.0977 12.2565 86.5966 12.7325 86.2476C13.2081 85.88 13.7165 85.6889 14.2576 85.6742C14.7241 85.6616 15.1853 85.7985 15.6412 86.085C16.0784 86.372 16.3051 86.814 16.3213 87.4111C16.3293 87.7097 16.2799 87.9538 16.173 88.1434C16.0469 88.3149 15.9561 88.4107 15.9007 88.4308C15.8633 88.4319 15.7491 88.3509 15.558 88.188C15.3663 88.0065 15.1306 87.9195 14.8507 87.927C14.5148 87.9361 14.2468 88.0367 14.0465 88.2289C13.8458 88.4024 13.7495 88.6384 13.7576 88.9369C13.7661 89.2541 13.9358 89.6604 14.2667 90.1556C14.597 90.6322 14.9921 91.0884 15.4521 91.5241L22.2816 91.3395C22.5988 91.331 22.9064 91.3133 23.2045 91.2866C23.502 91.2412 23.7416 91.1227 23.9231 90.931C24.0855 90.7212 24.1597 90.3551 24.1455 89.8326C24.141 89.6647 24.1559 89.5242 24.1902 89.4113C24.2053 89.2801 24.3526 89.2015 24.632 89.1752C24.7626 89.1717 24.8942 89.2055 25.0268 89.2766C25.1408 89.3482 25.1998 89.4587 25.2039 89.608C25.1812 90.1501 25.1668 90.6547 25.1607 91.1217C25.1728 91.5695 25.1857 92.0453 25.1993 92.5492C25.2129 93.053 25.2258 93.5288 25.2379 93.9766C25.2687 94.424 25.31 94.9177 25.362 95.4578Z" fill="#CD68C0"/>
<path d="M26.3956 74.075C25.2827 74.2569 24.0796 74.4143 22.7864 74.5474C21.4933 74.6805 20.2296 74.8118 18.9954 74.9415C17.7611 75.0712 16.6759 75.222 15.7398 75.3937C14.995 75.5014 14.4509 75.6537 14.1074 75.8507C13.7459 76.0428 13.4559 76.3994 13.2373 76.9204C13.1378 77.1448 13.0579 77.2972 12.9974 77.3775C12.9418 77.4398 12.7945 77.4482 12.5554 77.4028C12.2442 77.3378 12.1041 77.2128 12.1349 77.0277C12.1525 76.8198 12.189 76.5782 12.2442 76.3031C12.4929 75.1714 12.8918 74.3415 13.4411 73.8135C13.9903 73.2854 14.769 72.9453 15.7773 72.793C16.4042 72.6921 17.1735 72.6009 18.0853 72.5192C19.0019 72.4195 19.93 72.3132 20.8696 72.2003C21.8092 72.0875 22.6652 71.9617 23.4377 71.8229L23.4597 71.7418L17.1041 67.1475C16.6305 66.8258 16.3086 66.7289 16.1385 66.8569C15.9685 66.9848 15.8102 67.3191 15.6637 67.8596C15.6198 68.0217 15.5742 68.1544 15.5269 68.2576C15.4615 68.356 15.2913 68.3775 15.0162 68.3223C14.9081 68.293 14.7983 68.2343 14.6868 68.146C14.5802 68.0398 14.544 67.9236 14.5782 67.7975C14.7378 67.2799 14.8779 66.8343 14.9984 66.4609C15.119 66.0874 15.2427 65.6664 15.3697 65.198C15.4576 64.8737 15.5283 64.6125 15.5821 64.4143C15.6177 64.2112 15.6649 64.0016 15.7235 63.7854C15.764 63.5643 15.8217 63.2801 15.8965 62.9329C15.9355 62.7888 16.0254 62.7068 16.1662 62.6869C16.3118 62.649 16.4387 62.6447 16.5468 62.674C16.8122 62.7653 16.9458 62.8789 16.9477 63.0147C16.9364 63.1277 16.9112 63.2563 16.8721 63.4004C16.711 63.995 16.6897 64.5017 16.8083 64.9206C16.9317 65.3215 17.2746 65.7336 17.8368 66.1567C17.8368 66.1567 18.0532 66.3217 18.4859 66.6517C18.9055 66.9588 19.4522 67.368 20.1259 67.8794C20.7996 68.3907 21.5135 68.9323 22.2675 69.5041C23.0215 70.0759 23.7329 70.6265 24.4018 71.1558C25.0755 71.6672 25.6287 72.0879 26.0614 72.4179C26.4942 72.7479 26.7081 72.9219 26.7032 72.9399L26.3956 74.075Z" fill="#CD68C0"/>
<path d="M30.3879 60.7234C30.3227 60.8367 30.2183 60.9058 30.0747 60.9307C29.9242 60.9302 29.7923 60.8974 29.6791 60.8322C29.4551 60.6601 29.3629 60.5208 29.4026 60.4145C29.4262 60.2988 29.4845 60.16 29.5777 59.9983C29.8386 59.5454 29.9428 59.1961 29.8904 58.9505C29.8218 58.6956 29.6627 58.4855 29.4132 58.3203C29.173 58.1389 28.9155 57.969 28.6405 57.8106L23.0841 54.6105C22.7929 54.4428 22.5167 54.3053 22.2555 54.1979C21.9873 54.065 21.7339 54.0375 21.4952 54.1154C21.2402 54.184 20.9824 54.4448 20.7215 54.8977C20.6377 55.0433 20.5423 55.1715 20.4354 55.2822C20.3217 55.3675 20.1435 55.3403 19.9008 55.2005C19.6582 55.0608 19.5872 54.8476 19.6877 54.5608C20.003 53.7515 20.2158 53.1201 20.3262 52.6667C20.4459 52.1971 20.5258 51.8339 20.5661 51.577C20.6063 51.3201 20.6649 51.1062 20.7419 50.9351C20.8002 50.7964 20.8851 50.7052 20.9963 50.6616C21.1169 50.6018 21.2743 50.6278 21.4684 50.7396L29.9121 55.6026C30.1871 55.761 30.4587 55.9066 30.7268 56.0395C31.0042 56.1562 31.2704 56.1803 31.5253 56.1117C31.7734 56.0176 32.0279 55.7441 32.2887 55.2912C32.3725 55.1456 32.4586 55.0336 32.5468 54.9552C32.6282 54.8512 32.7949 54.8611 33.0469 54.9846C33.1601 55.0498 33.2547 55.1474 33.3306 55.2773C33.3904 55.3979 33.3831 55.5229 33.3085 55.6523C33.006 56.1028 32.7302 56.5256 32.4811 56.9206C32.2576 57.3089 32.02 57.7213 31.7685 58.1581C31.5169 58.5948 31.2794 59.0073 31.0558 59.3955C30.8484 59.7931 30.6257 60.2357 30.3879 60.7234ZM17.6014 50.1604C17.3406 50.6133 16.9842 50.9142 16.5322 51.0632C16.064 51.2029 15.6196 51.1516 15.1991 50.9094C14.827 50.6951 14.6026 50.3181 14.5257 49.7783C14.4488 49.2386 14.5454 48.7342 14.8156 48.2651C15.0485 47.8607 15.3851 47.613 15.8253 47.5218C16.2493 47.4214 16.6797 47.4969 17.1165 47.7485C17.5047 47.9721 17.7478 48.3167 17.8458 48.7824C17.9437 49.2481 17.8623 49.7075 17.6014 50.1604Z" fill="#CD68C0"/>
<path d="M40.2923 46.257C38.9729 47.6554 37.5004 48.3321 35.8749 48.2869C34.2486 48.2154 32.7023 47.4878 31.2359 46.1043C30.3375 45.1797 29.7271 44.1675 29.4046 43.0676C29.0949 41.9542 29.0695 40.8524 29.3283 39.762C29.5863 38.6453 30.1117 37.6397 30.9044 36.7451C31.3527 36.2699 31.8686 35.8455 32.4519 35.4721C33.0345 35.0722 33.6357 34.8566 34.2554 34.8254C34.8744 34.7678 35.469 35.008 36.0392 35.546C36.433 35.9175 36.6843 36.3856 36.7931 36.9502C36.8884 37.5021 36.7311 37.9952 36.3211 38.4297C36.0393 38.7284 35.7469 38.8888 35.4438 38.9108C35.1407 38.9328 34.9552 38.9118 34.8874 38.8477C34.8602 38.8221 34.8571 38.7166 34.8781 38.5311C34.8984 38.3192 34.8851 38.0885 34.8382 37.839C34.7778 37.5766 34.6321 37.3366 34.4013 37.1188C33.9668 36.7089 33.5005 36.564 33.0022 36.6841C32.5039 36.8042 32.0622 37.0548 31.6771 37.4357C31.1135 38.0331 30.7809 38.6304 30.6794 39.2276C30.5908 39.8112 30.6604 40.3901 30.8884 40.9645C31.1028 41.5261 31.4156 42.065 31.8267 42.5813C32.2507 43.0839 32.6867 43.5466 33.1348 43.9694C33.8815 44.6739 34.6625 45.1926 35.4777 45.5254C36.2793 45.8455 37.0483 45.9552 37.7849 45.8545C38.5214 45.7539 39.1651 45.4116 39.716 44.8278C40.2796 44.2304 40.6246 43.6063 40.7509 42.9556C40.8773 42.3049 40.8494 41.5728 40.6673 40.7594C40.6212 40.5363 40.7421 40.3809 41.0301 40.2933C41.174 40.2495 41.3128 40.2521 41.4462 40.301C41.5797 40.35 41.6619 40.4532 41.6929 40.6108C41.9083 41.6609 41.8923 42.698 41.6447 43.7219C41.3836 44.7331 40.9328 45.5781 40.2923 46.257Z" fill="#CD68C0"/>
<path d="M52.9391 35.2573C51.7042 35.9929 50.5042 36.3493 49.339 36.3264C48.1898 36.294 47.144 35.9609 46.2017 35.3273C45.2593 34.6937 44.4776 33.8557 43.8566 32.8133C43.4363 32.1077 43.1505 31.3545 42.9994 30.5536C42.8547 29.7272 42.8525 28.9029 42.9928 28.0806C43.1235 27.2423 43.422 26.4669 43.8885 25.7545C44.3549 25.042 45.0051 24.4374 45.839 23.9407C47.3144 23.0618 48.6502 22.7875 49.8465 23.1178C51.0492 23.4225 52.0554 24.1267 52.865 25.2306C53.1994 25.7918 53.2588 26.2562 53.0431 26.6237C52.8435 26.9816 52.4951 27.3086 51.998 27.6048L46.1526 31.087C46.7067 32.0171 47.3318 32.7746 48.0278 33.3595C48.7143 33.9283 49.4591 34.2667 50.2623 34.3749C51.072 34.4575 51.9339 34.2265 52.848 33.682C53.5215 33.2808 54.0129 32.7925 54.322 32.2172C54.6312 31.642 54.7953 30.8598 54.8144 29.8706C54.8472 29.6338 55.0188 29.5207 55.3293 29.5313C55.4958 29.519 55.6381 29.5755 55.7561 29.7007C55.8646 29.8099 55.9155 29.9317 55.9087 30.0662C55.8796 31.1481 55.622 32.1381 55.1358 33.0361C54.6495 33.9342 53.9173 34.6746 52.9391 35.2573ZM45.6081 30.1729L49.529 27.8371C49.9139 27.6078 50.1756 27.3542 50.3142 27.0761C50.4592 26.7724 50.4299 26.4314 50.2262 26.053C49.8154 25.3634 49.2599 24.8686 48.5598 24.5687C47.8661 24.2432 47.1264 24.3145 46.3406 24.7826C45.5387 25.2603 45.0562 25.9822 44.8931 26.9485C44.7461 27.9053 44.9844 28.9801 45.6081 30.1729Z" fill="#CD68C0"/>
<path d="M79.1613 26.0135C77.2232 26.1258 75.7129 25.8767 74.6305 25.2663C73.5469 24.6373 72.9668 23.6612 72.8902 22.3381C72.8513 21.6672 73.0431 21.1045 73.4655 20.65C73.9055 20.1757 74.4888 19.9176 75.2156 19.8755C75.7012 19.866 76.0437 19.9677 76.243 20.1805C76.4609 20.3923 76.5732 20.5541 76.5796 20.6659C76.5818 20.7032 76.5017 20.7732 76.3394 20.8761C76.176 20.9604 76.0169 21.1192 75.8622 21.3525C75.7063 21.5672 75.6413 21.8982 75.6673 22.3455C75.7158 23.1841 76.0156 23.8398 76.5666 24.3127C77.1164 24.767 77.9597 24.9612 79.0965 24.8954C79.8978 24.849 80.5694 24.6605 81.1112 24.3299C81.6705 23.9796 82.0852 23.5536 82.3553 23.0518C82.6243 22.5314 82.7437 22.0102 82.7135 21.4885C82.6681 20.7058 82.4073 20.0758 81.9309 19.5986C81.4545 19.1213 80.8426 18.7267 80.0953 18.4148C79.3656 18.0831 78.5903 17.7727 77.7696 17.4837C76.9488 17.1947 76.1626 16.857 75.411 16.4705C74.678 16.0829 74.0602 15.5858 73.5576 14.9792C73.054 14.3539 72.7647 13.5573 72.6899 12.5894C72.6033 11.4164 72.7998 10.4514 73.2795 9.69441C73.7581 8.91876 74.4535 8.33622 75.3659 7.9468C76.2771 7.53874 77.3011 7.30177 78.4379 7.23591C79.2765 7.18732 80.1035 7.26094 80.9188 7.45677C81.7528 7.65152 82.4458 7.99468 82.9979 8.48623C83.5674 8.95808 83.8765 9.61329 83.9251 10.4519C83.964 11.1228 83.7634 11.6953 83.3235 12.1696C82.901 12.6241 82.3264 12.8724 81.5997 12.9145C81.113 12.9053 80.7612 12.8042 80.5443 12.6111C80.345 12.3982 80.2421 12.2359 80.2357 12.1241C80.2324 12.0682 80.3405 11.9965 80.5598 11.909C80.778 11.8029 80.993 11.6408 81.2047 11.4229C81.4154 11.1863 81.5083 10.8537 81.4835 10.4251C81.4424 9.71693 81.1409 9.19216 80.5789 8.85077C80.0158 8.49074 79.3336 8.33394 78.5323 8.38037C77.321 8.45055 76.4525 8.79069 75.9269 9.40078C75.4189 9.99115 75.1854 10.6404 75.2264 11.3486C75.2664 12.0381 75.4851 12.5863 75.8827 12.9934C76.2802 13.4004 76.8636 13.7873 77.6327 14.1541C78.4972 14.5527 79.3694 14.9229 80.2493 15.2646C81.1282 15.5876 81.9445 15.961 82.6982 16.3848C83.4707 16.8075 84.101 17.3599 84.5893 18.0422C85.0765 18.7058 85.3519 19.5873 85.4156 20.6868C85.4707 21.6372 85.2217 22.5024 84.6685 23.2824C84.134 24.0613 83.3853 24.6936 82.4225 25.1795C81.4597 25.6653 80.3726 25.9433 79.1613 26.0135Z" fill="#CD68C0"/>
<path d="M95.0838 25.9091C93.9772 25.6406 93.1654 25.1075 92.6483 24.3097C92.1493 23.5163 92.0076 22.6752 92.2233 21.7863C92.4478 20.8612 92.8597 20.1928 93.459 19.7812C94.0764 19.3739 94.806 19.138 95.6476 19.0733C96.5074 19.013 97.4109 19.0497 98.3581 19.1835C99.3234 19.3217 100.257 19.4714 101.159 19.6327L101.681 17.4831C101.888 16.6305 101.831 15.9156 101.51 15.3383C101.211 14.7472 100.554 14.3285 99.5383 14.082C99.0304 13.9587 98.5101 14.0054 97.9773 14.2218C97.4627 14.4427 97.1306 14.8615 96.9809 15.4783C96.9105 15.7686 96.9236 16.0311 97.0204 16.2658C97.1171 16.5006 97.2248 16.69 97.3435 16.834C97.4622 16.9781 97.5171 17.0683 97.5083 17.1045C97.4907 17.1771 97.3489 17.2867 97.0828 17.4335C96.8392 17.5664 96.536 17.5889 96.1732 17.5009C95.6109 17.3644 95.2261 17.0502 95.019 16.5581C94.8118 16.0661 94.7699 15.5661 94.8931 15.0582C95.0604 14.3688 95.4011 13.8752 95.9151 13.5774C96.4473 13.2839 97.071 13.1279 97.7862 13.1094C98.5015 13.0909 99.2037 13.1652 99.8931 13.3325C100.709 13.5306 101.474 13.8218 102.188 14.2062C102.919 14.595 103.462 15.1301 103.815 15.8112C104.187 16.4968 104.236 17.402 103.963 18.5267L102.425 24.8667C102.399 25.0525 102.391 25.2812 102.402 25.5528C102.413 25.8243 102.494 26.0841 102.645 26.3321C102.819 26.5663 103.087 26.7274 103.45 26.8155C103.577 26.8463 103.67 26.8977 103.73 26.9697C103.793 27.0236 103.801 27.1503 103.753 27.3499C103.713 27.5131 103.591 27.6181 103.388 27.6648C103.185 27.7115 102.961 27.7243 102.716 27.7034C102.471 27.6825 102.267 27.6522 102.104 27.6126C101.433 27.4497 100.88 27.114 100.447 26.6054C100.018 26.0786 99.8413 25.4596 99.9179 24.7483C99.3427 25.377 98.6098 25.7851 97.7192 25.9723C96.8511 26.1459 95.9727 26.1248 95.0838 25.9091ZM96.3111 24.651C96.9278 24.8007 97.5276 24.7829 98.1104 24.5978C98.7113 24.4171 99.2297 24.1011 99.6658 23.6498C100.124 23.1849 100.433 22.6259 100.591 21.9728L100.968 20.4218C99.0684 20.0954 97.6625 20.0712 96.7498 20.3492C95.8372 20.6272 95.2511 21.3013 94.9914 22.3716C94.6921 23.6051 95.132 24.3649 96.3111 24.651Z" fill="#CD68C0"/>
<path d="M108.819 29.3059C108.703 29.2453 108.63 29.1438 108.599 29.0013C108.594 28.8509 108.621 28.7178 108.682 28.602C108.828 28.3625 108.955 28.2605 109.063 28.2959C109.196 28.3233 109.337 28.376 109.486 28.4539C109.949 28.6961 110.302 28.7861 110.546 28.7237C110.814 28.6535 111.026 28.4904 111.181 28.2344C111.352 27.987 111.512 27.7228 111.659 27.4416L117.992 15.3338C118.147 15.0361 118.274 14.7545 118.37 14.4891C118.492 14.2158 118.509 13.9614 118.422 13.7261C118.343 13.4741 118.072 13.227 117.609 12.9848C117.46 12.9069 117.328 12.8169 117.213 12.7146C117.123 12.6044 117.143 12.4252 117.273 12.1771C117.403 11.929 117.613 11.8494 117.903 11.9382C118.725 12.2204 119.364 12.4074 119.822 12.4992C120.296 12.5997 120.662 12.6649 120.92 12.6946C121.179 12.7244 121.395 12.7743 121.569 12.8443C121.71 12.8969 121.804 12.978 121.853 13.0874C121.917 13.2055 121.898 13.3638 121.794 13.5622L113.916 28.6225C113.769 28.9037 113.635 29.1809 113.513 29.4543C113.408 29.7362 113.394 30.0031 113.473 30.2551C113.577 30.4991 113.861 30.7422 114.324 30.9845C114.473 31.0624 114.588 31.1438 114.67 31.2288C114.777 31.3059 114.774 31.4728 114.661 31.7296C114.601 31.8454 114.507 31.9438 114.38 32.025C114.262 32.0896 114.137 32.0874 114.005 32.0181C113.542 31.7342 113.109 31.4758 112.704 31.2429C112.307 31.0353 111.885 30.8147 111.438 30.5811C110.992 30.3475 110.57 30.1269 110.173 29.9192C109.767 29.7281 109.316 29.5237 108.819 29.3059Z" fill="#CD68C0"/>
<path d="M124.587 39.2198C123.617 38.344 122.972 37.346 122.65 36.2258C122.343 35.118 122.32 34.0156 122.581 32.9186C122.842 31.8215 123.348 30.8574 124.099 30.0262C124.837 29.2088 125.639 28.6129 126.506 28.2384C127.372 27.8638 128.235 27.6745 129.094 27.6705C129.966 27.6789 130.787 27.8287 131.555 28.12C132.323 28.4113 132.984 28.8072 133.539 29.3076C134.508 30.1834 135.147 31.1752 135.454 32.2829C135.776 33.4032 135.806 34.5118 135.544 35.6089C135.283 36.7059 134.777 37.6701 134.026 38.5013C133.288 39.3186 132.479 39.9083 131.599 40.2703C130.732 40.6448 129.863 40.8279 128.99 40.8195C128.131 40.8236 127.318 40.6799 126.55 40.3886C125.781 40.0974 125.127 39.7077 124.587 39.2198ZM125.281 38.4509C125.96 39.064 126.675 39.3448 127.426 39.2933C128.19 39.2544 128.95 38.9845 129.704 38.4835C130.484 37.9811 131.219 37.349 131.907 36.5871C132.57 35.8528 133.087 35.0996 133.457 34.3274C133.827 33.5552 133.981 32.8007 133.917 32.0638C133.853 31.327 133.495 30.6645 132.844 30.0765C132.165 29.4635 131.444 29.1764 130.679 29.2154C129.927 29.2404 129.174 29.5035 128.42 30.0044C127.678 30.4916 126.957 31.123 126.256 31.8988C125.605 32.6192 125.082 33.3662 124.685 34.1397C124.302 34.9258 124.136 35.6941 124.188 36.4449C124.252 37.1817 124.616 37.8504 125.281 38.4509Z" fill="#CD68C0"/>
<path d="M133.625 46.7596C133.559 46.6467 133.551 46.5217 133.601 46.3847C133.677 46.2545 133.771 46.1566 133.884 46.091C134.145 45.9826 134.311 45.9722 134.384 46.0597C134.472 46.1378 134.564 46.2575 134.657 46.4189C134.92 46.8709 135.171 47.1354 135.41 47.2124C135.665 47.2801 135.926 47.247 136.194 47.1131C136.471 46.9954 136.747 46.8568 137.021 46.6974L142.565 43.4769C142.856 43.3081 143.113 43.1373 143.336 42.9644C143.585 42.7982 143.735 42.5922 143.787 42.3464C143.855 42.0913 143.757 41.7377 143.495 41.2857C143.41 41.1405 143.347 40.9939 143.304 40.846C143.287 40.7049 143.399 40.564 143.641 40.4234C143.883 40.2828 144.104 40.3275 144.302 40.5576C144.846 41.2345 145.288 41.7338 145.626 42.0556C145.973 42.3935 146.243 42.6358 146.437 42.7827C146.639 42.9456 146.795 43.1031 146.905 43.2552C146.996 43.3749 147.033 43.4939 147.015 43.6121C147.007 43.7465 146.906 43.8699 146.712 43.9824L145.187 44.8684L145.229 44.941C145.723 45.0857 146.206 45.2479 146.678 45.4274C147.165 45.5976 147.629 45.8572 148.069 46.206C148.534 46.5616 148.964 47.0783 149.358 47.7563C149.995 48.8539 150.171 49.9177 149.884 50.9478C149.597 51.9778 148.913 52.8069 147.832 53.4351L142.674 56.4306C142.4 56.59 142.138 56.7528 141.89 56.9189C141.65 57.1012 141.496 57.32 141.429 57.5751C141.387 57.8371 141.497 58.194 141.759 58.646C141.844 58.7912 141.898 58.9217 141.922 59.0373C141.971 59.1596 141.88 59.2992 141.647 59.456C141.534 59.5216 141.402 59.555 141.252 59.556C141.117 59.5477 141.013 59.479 140.938 59.3499C140.698 58.863 140.469 58.4131 140.251 58.0002C140.026 57.6128 139.787 57.2012 139.534 56.7654C139.281 56.3296 139.042 55.918 138.817 55.5306C138.575 55.1526 138.303 54.7389 137.999 54.2896C137.933 54.1766 137.925 54.0516 137.975 53.9146C138.05 53.7844 138.145 53.6865 138.258 53.6209C138.509 53.4964 138.671 53.4779 138.744 53.5654C138.841 53.6596 138.933 53.7794 139.017 53.9246C139.28 54.3766 139.53 54.6411 139.769 54.7181C140.034 54.8019 140.3 54.7769 140.568 54.643C140.845 54.5253 141.12 54.3867 141.395 54.2273L146.528 51.2459C147.06 50.9365 147.426 50.5623 147.624 50.1233C147.832 49.7004 147.913 49.2645 147.868 48.8157C147.824 48.3668 147.693 47.9567 147.478 47.5855C147.159 47.0367 146.773 46.6134 146.319 46.3156C145.882 46.0084 145.459 45.8007 145.051 45.6925C144.642 45.5842 144.313 45.5379 144.063 45.5536L138.301 48.9007C138.026 49.0601 137.765 49.2229 137.516 49.389C137.276 49.5713 137.123 49.79 137.055 50.0452C137.013 50.3071 137.123 50.6641 137.386 51.116C137.47 51.2613 137.524 51.3918 137.548 51.5074C137.598 51.6297 137.506 51.7693 137.273 51.9261C137.16 51.9917 137.029 52.025 136.878 52.0261C136.744 52.0178 136.639 51.9491 136.564 51.8199C136.324 51.3331 136.095 50.8832 135.877 50.4703C135.652 50.0829 135.413 49.6713 135.16 49.2355C134.907 48.7997 134.668 48.3881 134.443 48.0007C134.202 47.6227 133.929 47.209 133.625 46.7596Z" fill="#CD68C0"/>
</svg>
